<svg xmlns="http://www.w3.org/2000/svg" viewBox="0 0 6418.61 6661.96"><defs><style>.cls-1{fill:#fff;}</style></defs><g id="Layer_2" data-name="Layer 2"><g id="Layer_1-2" data-name="Layer 1"><path class="cls-1" d="M-676.59-7318.91a25,25,0,0,1-3.26-5.81c-34.8-88-149.32-165.26-149.32-165.26-37.35-25.28,13.2,4.33-232.14-213-72.64-64.33-134.5-139.75-206.16-205.15-33.34-30.43-70.11-66.24-66.79-103,2.19-24.19,29.57-46.14,84.09-89.8,3.47-2.78,7.7-4.72,10.85-7.78C-1095-8248.9-954.83-8393.35-798.49-8521.4c48.23-39.49,72.34-99.25,101.43-153.4,18.46-34.35-1.81-69.19-5.26-82.33-20.64-78.66-70.64-89.17-172.8-206.41-41.74-47.9-62.69-79.76-116.63-124.43-51.57-42.71-77-50.48-98.76-49.69-41.58,1.49-66,37.43-97.66,64.43-120.29,102.68-243.64,201.91-366,302.25-12.92,10.59-22.76,34.7-42.56,25a27.92,27.92,0,0,1-8.9-7.15c-16.91-20.81-20.05-45.08-20.05-45.08-28.93-223.95-4.33-334-4.33-334,9.7-43.42,15-52,7.78-64.64-26.43-46.58-138.51-3.53-358.6-14.64-38.3-1.93-76.72-1.54-114.94-4.61-91.65-7.37-134-19.68-164.36,5.66-20.75,17.31-25.48,43.48-27.64,58.65-24,168.83-21.91,1024.16-28.68,1268.74-11.51,416.12-17.26,624.18-19.47,634.32-14.21,65.12-9.53,96.26-.17,158.54,8.78,58.42,23.57,90,49.07,108.93,16.56,12.29,37.05,20.26,61.06,22.56,144.56,13.86,288.68,52.68,435.74,7.54,73-22.41,112.77-54,120.89-126.61,9.11-81.4,15.26-163.12,23.76-244.58,1-9.94,6.21-23.48,13.85-27.78,11.55-6.5,18.73,7.51,25,15.27,86.43,107.91,174.82,213.26,276.14,309.14,45.21,42.78,89.58,85.28,140.95,119.62,82.39,55.06,142.94,46.93,218.85-17,55.28-46.54,111-90.81,160.83-144.61,50.86-55,121.32-92.72,133.39-174Z" transform="translate(3519.64 9617.77)"/><path class="cls-1" d="M2235.4-7520.42c2.5-227.2-1.76-328.64-2.05-504.16-.16-105.27,1.36-72.94,3.45-377.14.91-131.58.72-151.87,1.73-250.87,1-101.64,1.83-139.11,1.72-206-.15-93.72-2-169.87-3.45-219.3a294,294,0,0,0-79.88-59.81c-80.38-40.78-141.14-23.42-277-17.72-217.2,9.11-294.9-25.5-344.81,32.12-23.34,26.95-28.6,60.22-29.42,84v559.9c3.2,27.92,3.37,56.2,4.35,84.38.77,22,13,53.37-18.29,62.45a46.67,46.67,0,0,1-23.28,0c-70.46-18.22-160.93-259.07-160.93-259.07-96.09-255.8-123.08-294.58-146.3-323.07C1130-8953,1075-9010.8,983.17-9053.91c-74.79-35.1-154.77-14-232-21.72C674.84-9083.24,587.72-9029,554-8959.36v1477.9c-1.79,67.07-4,165.37-5.06,286.74-.94,106.12-.51,169.89,45.84,209.38,9.75,8.3,25,18.47,90.61,34,99.27,23.5,179.67,27.53,219.57,29.08,163.5,6.33,245.76,8.7,270.68-30.74,5.92-9.37,6.32-33.51,6.89-81.41,1.12-94,1.68-141,1.57-144.52-5.44-168.42-12.08-374.05,14.81-378,3.13-.46,8,1.62,15.41,13.75,33,28.85,35.9,71.93,59.57,101.33,96.49,119.81,169.43,255,268.36,373.5,31.5,37.72,62.81,69.16,106.49,92.45,145.1,77.34,367.31,67.13,477.19-52.14,48.75-52.9,61.41-114.37,86.73-237.32C2233-7364,2234.51-7439.49,2235.4-7520.42Z" transform="translate(3519.64 9617.77)"/><path class="cls-1" d="M144.37-8684.35c10.67-3,43-2.79,107.53-3.4,11.36-.11,28.87-3.53,52.55-3,55.87,1.13,85.12-18.66,89.8-80.14,5.15-67.78,3.38-135.87,11.09-203.88,4.46-39.28.82-86.74-71.77-102.8C202.76-9106.56,71-9101.38-59.76-9111c-149.45-11-300.48.81-450.72-2-108.27-2-145.49,32.21-138.82,140.17,3,47.9,7.28,95,2.42,144-10.32,103.92,23.62,136.34,127.27,137.75,33.69.46,67.38.84,101.06.7,13.34-.06,23.08,3,29.71,9.09,11,10.15,11.18,26.2,11.25,31.48.64,47.09,10.08,513.06,11.64,568.57,0,0,11.32,400.28-.6,513.32-1.14,10.79-4.19,33.62-21.61,46.9-14.7,11.22-31.88,11-44.59,11.23-44.09.83-102.43,11.59-131.4,32.19-19.4,13.79-27.84,33.57-42,94-33.48,142.8-50.21,214.2-27.59,292.21,8.78,30.26,22.31,76.92,58.62,115.52,73.35,78,174.59,53.87,454,48.7,308.22-5.71,441.26,18.89,513.77-72.49,28.18-35.51,41.52-81.37,42.53-84.94,16.28-57.59,1.46-85.68-24.14-224.25-21.84-118.19-21-151.68-55.17-176.68-24.12-17.66-53.81-22.41-89.18-28.07-66.43-10.62-100.52,4.23-125.75-19.5-18.09-17-19.51-42.44-20.05-55.47-12.87-309.26-19.3-463.89-13.9-551.59C124.64-8426.84,78.54-8665.81,144.37-8684.35Z" transform="translate(3519.64 9617.77)"/><path class="cls-1" d="M-208.53-6759.75c72.14,48.71,64.55,121.4,116.13,381.9C-60-6214.4.1-5910.76,49-5912.36c26.82-.87,39.94-93.31,117.49-450.61,58.14-267.86,80.44-352.63,158.36-395.43,22.68-12.45,97.87-12.83,248.26-13.59,189.6-.95,254.62,9,286.19,54.37,16,22.94,21.64,52.4,25.38,71.92,11.37,59.28-.68,107.43-5.53,126C796.64-6204.35,745-6087,745-6087c-13,29.64-59.11,191.25-151.23,514.46-55.28,194-118.44,385.8-169,581-67.67,261.45-85.58,378.21-196.54,445.1-89.83,54.15-201.15,51.81-241.37,51-37.73-.8-159.15-3.35-251.71-68-93.83-65.5-114.77-164.6-165.58-431.26-53.48-280.72-92.76-498.87-113.45-610-49.16-264.1-73.74-396.14-95.67-487.69-32.38-135.24-34.57-276.8-71.92-410.79,0,0-17.81-63.9-5.46-170.63,1.45-12.57,3.93-29.69,16-45.94,27.55-37.2,82.73-39.53,107.91-40.62C-255.6-6774.92-241.86-6782.26-208.53-6759.75Z" transform="translate(3519.64 9617.77)"/><path class="cls-1" d="M2348.87-5745.87c-4.73-121.17-18.09-386.46-176.25-650.25-91.23-152.16-176-212.75-220.26-240-87.56-53.84-168.08-70.43-193.89-75.13-22.3-4.07-110.26-18.69-221.67,4.55-67.46,14.08-167,46.92-308.54,160.63C1033.94-6390,920.7-6210.29,866-6110.74c-53.27,96.9-184.39,360.31-189.54,718.12a1518.69,1518.69,0,0,0,18.15,256.84c12.06,101.48,47.64,287.95,168,438.53,46.56,58.25,86.8,90.06,98.92,96.55,123,65.93,254.19,110.09,418,105.52,96-7.77,238-32.12,390.15-109,151-76.37,242.58-169.49,264.46-192.31,105.21-109.73,155.72-217.76,196.21-306.29a1353.47,1353.47,0,0,0,88.63-261.62C2350-5523.66,2352.38-5655.92,2348.87-5745.87Zm-692.58,423c-53.86,46.07-122.56,68.09-194.9,42.12-71.11-25.54-97.38-90.57-119-153.64-11.08-32.37-6.29-70-8.68-105.25,6.7-204.87,80-381.31,243.6-510.6,123.14-97.35,254-45.56,296.67,105.11C1946.93-5687.58,1849.39-5488,1656.29-5322.85Z" transform="translate(3519.64 9617.77)"/><path class="cls-1" d="M2804-4089.72c-2.73-27.7-6.54-75.44,21-113,9.67-13.18,12.08-19.58,26.77-31.2,23.71-18.76,29.65-61.46,24.86-94.95-20.67-144.57-18.12-290.38-19.62-435.37-2.88-277.7-28.2-554.23-31.47-832.07-3.22-274.52-8-549.36-17.8-824-13.57-378.91-17.11-434.16-21.61-614.85C2766.52-7823,2685.24-8611,2716-9398.48c.71-18.27,4.07-80.29-33.91-110.55-24.4-19.44-55.58-17.57-68.58-16.89-75.19,3.94-207.73,2.9-386.34-.08-18.75-.31-226-1-641-9.55-392.76-8.06-374.14-9.5-642.64-14.85-376.49-7.5-426-6.12-837.48-13.28-462.12-8-693.18-12-977.59-22.24-233.58-8.37-588.87-21.5-1027-20.64-16.32,0-27.91.26-50.59.36-344.72,1.48-605-2-820.73-10.19-63.21-2.39-171.88-7.07-299.13,40.18-45.13,16.76-201.13,77.11-308.62,235.55-60.88,89.72-77.23,168.22-105.46,303.74-7.23,34.74-30.22,150.58-36,447.64-1.69,86.73,1.09,209.32,4.28,454.52,1.27,98.43,3,203.43,5.46,337.31,2.94,156.75,1.83,194.4,3,528.67,1.11,306.2,5.93,979,11.68,1484.05,2.53,222.08,6.51,539.86,12.65,926.39,9.51,475.89,42.92,841,75.85,1024.09,13.36,74.26,41.44,200.91,137.73,277.95,43.19,34.56,94.76,54.66,99.72,56.76,53,22.45,117.15,25.57,176.25,25.54,188-.07,376.23,10.63,564.19-3.63,11.1-.84,26.57-4.55,32.75,2.62,5.06,5.87,2,15.8.85,19.7-21.89,74.61-34.66,152-61.41,225-27.28,74.47-33.78,98.87-22,124.59,9.17,20,27.34,40.21,50.24,45.07,26,5.52,54.12,3,79-10.12,105.91-56,219.93-95.65,321.85-159.79,35.76-22.49,72.9-43.69,108.3-65.7,33-20.52,41.26-10.34,54.13,12.77,45.08,80.95,96.83,158.26,131.49,244.92a273.48,273.48,0,0,0,36,64.17c17.29,22.58,45,20.83,68.51,14.08a54.32,54.32,0,0,0,12.64-7.61c10.89-9.05,128.79-121.26,208.12-499.87,3.11-14.87,11.46-55.36,40.08-67.24a48.15,48.15,0,0,1,23.71-3l2841.24,13.81c621.56-32.43,961.22-26.38,1150-3.44,50,6.07,212.13,28.25,246.54-37.93,12.78-24.59.9-47.86-19-105.17C2874.7-3670.77,2833.6-3789.32,2804-4089.72ZM-3215.23-3988c-26.34,57.64-28.7,118.42-31.11,180.34a830.44,830.44,0,0,0,4,120c-64.38-126.44-88.16-232.47-98-305.16-11-80.77-11.89-185.59-13.74-395.23-.27-31.13-.33-54.19-.34-55-.71-114.6-2.58-408.33-6.08-883.55-2.91-395.78-5.37-729.8-15.91-1164.29-9-372.7-15.26-415.07-20.52-757.19-2.81-182.66-4.15-402.62-4.88-835.12-.92-541,1.89-1013.29,178.7-1204.78,47.54-51.49,135.38-112.7,216.16-154.64,0,0,86.16-60.71,205.39-45.05,31.66,4.16,50.21,7.2,47,44.92-2.66,31.15,1,62.81,1,94.24q.14,751.1.19,1502.17.53,501.57,3.22,1003.11c1.28,262.17,5,524.32,5.28,786.49.19,196.43-5.21,392.88-4.75,589.32.32,136.76,7.39,273.49,9.38,410.26,1.44,98.69-1.89,93.06-3,214-4.14,433.06,18.64,468.78-28,529.38-60.09,78.11-114.08,39.71-323.87,194.79C-3150.23-4078.34-3189.78-4043.7-3215.23-3988Zm814.62,395.4c-104.28,21.59-209.95,15.09-315.26,16-15.73.13-31.46,0-47.19,0-76.39,0-152.87-2.22-229.13.95-14.19.59-25.32-1.93-34.43-6.81-5.71-3.06-26.45-14.3-32.2-37.71-1.61-6.56-4.12-16.76.19-25.33,10.2-20.31,51.22-16.6,125.28-16.24,29,.15,58-1.85,86.95-1.18,32.63.76,370.52-.15,442.77,0,20.41,0,43-1.35,45,27.45S-2376.69-3597.55-2400.61-3592.6Zm912.75-286.77a1912.53,1912.53,0,0,1-86.57,513.22,1896.8,1896.8,0,0,1-101.47,256.26q-69.6-124.38-138.47-255.59-34.44-65.7-67.31-130.59c-22.5,19.3-54.39,46-93.62,76.48-54.45,42.37-123.5,95.73-217.86,151.1a1637,1637,0,0,1-171.25,87.35q23.57-78.15,47.12-156.31c48.86-145.72,94.4-300.89,134.48-465.26q17.54-71.92,32.75-142.18l350.25,17.86,297.78-.56Q-1494.93-3903.48-1487.86-3879.37Zm47.47-146.66c-76.6-4.33-154.68-5.94-230.89-8.52-172-5.82-344.15,4.14-515.75-9.16-21.93-1.69-45,4-65.06,14.76-3.65,43.33-10.91,86.22-13,129.73-2.92,60.76-6.24,77.83-18.16,95.43-32.53,48.07-112.95,46.48-146.68,46-365.85-5.66-646,30.51-689.62-70.69-9-20.84-12.07-45.69-12.07-45.69-8.36-67.16,24.89-121.15,33.71-134.47a152.23,152.23,0,0,1,12.06-16.2c42.84-49.46,103.75-69.91,153.37-84.89,99-29.89,148.51-44.84,207.74-57.53,62.57-13.4,115-22.1,151.72-27.58l4869.3-21.29q64.56.51,130.74,2,52,1.2,103,3c-41.94,106.92-23.17,213.33-26.59,318.18-.07,2.23.71,4.56.33,6.71-5.55,31.13,54.87,59.85,11.44,86.46-24.94,15.28-65.59,5-99.17,6.1-189.16,6.45-378.67,23-567.37,16.48-191.48-6.67-381.31-1.05-570.63,22-125.18,15.21-246.43-19.45-371.21-16.43-193.62,4.67-387.71-6.1-581.68-8.55-206-2.6-411.32,17.09-617.77,2.9-158.58-10.91-318.8-4.85-478,1.53-186.4,7.48-372.64-.81-558.87,3.58-30.31.72-38.74-12.21-42.32-38.31-5.83-42.46-11.14-85.17-2.15-127.19C-1361.78-3994.62-1397.89-4023.63-1440.39-4026ZM2727-3624.81a21,21,0,0,1-5.34,10.18c-4,6.45-10.84,11.12-20.77,11.12L-1061-3600.08c-138.88.57-242.37.43-287.61,1.34-6.83.14-23.74.53-35.34-10.52-15.72-15-12.08-41.77-8.07-71.28,4.94-36.29,16.2-44.1,20.15-46.4a32.4,32.4,0,0,1,14.34-4.19h3857c20.66-2.93,41.11-6.77,60.49-16.07,7-3.35,14-6.58,21-9.85a277.82,277.82,0,0,0,31.06-25.5c1.22-2.38,2.43-4.76,3.55-7.19.14-.3.4-.8.67-1.32.76-1.48,1.29-3.16,1.89-4.69a36.47,36.47,0,0,1,2.33-4.87c3.46-14.58,4.61-28.92,2.52-41.22a982.79,982.79,0,0,1,2.32-345.14c3.25-17.64,2.61-38,28.46-37.35,33.06.8,25.75,26.67,23.77,44.58-15.61,141.38,4.71,279.16,31.25,417.84,1.42,7.43,2.44,14.12,3.26,20.49a28.69,28.69,0,0,1,1.36,14.23c.16,2.79.21,5.44.21,8a50.47,50.47,0,0,1,1.55,4.94c1.17,5.23,1.54,10.92,2.11,16.29.1.92.17,1.92.27,2.86q1.49,4.68,3,9.33C2727.22-3665.73,2731.21-3645.86,2727-3624.81Zm-99.67-698.8c-118.72,5-302,11.46-526.41,13.79-337.92,3.5-397.71-6.19-870.07-9.2-234.53-1.49-490.57-3.12-824.1,3.45-149.16,2.94-228,5.83-396.53,6.9-193.7,1.23-237-1.66-511.47-1.15-152.48.28-275.71,1.43-367.8,2.3-143.56,1.36-169.54,2.14-372.4,4.6-257.41,3.11-405,4.14-480.44,4.59-11,.07-202.26,1.07-455.15-4.59-294.73-6.61-404-16.23-450.55-91.95-11-17.94-15.16-34.1-20.69-151.72-7.22-153.65-10.84-230.47-6.89-308,16.94-333.28,3.92-667.59,19.42-1000.94,23-495.38,8.68-445.32-6.9-2135.41-2.74-297.76-.46-595.57-.46-893.36,0-183.56,1.19-367.13-.9-550.67-.24-20.55,2-33.33,9.54-40.78,13.77-13.56,37.92-9.38,42.72-8.73,43.23,5.9,665.43,18.42,1544.67,33.79,1250.44,17.24,1824.33,24.39,2104.47,27.43q362.21,3.92,724.39,9.17c117.94,1.68,237.06-1.19,353.42,5.46,130.62,7.47,261.32,14.51,392.25,16.93,40.19.74,38.56,26.5,36.94,55.72-11.53,208.26,20.44,414.94,23.56,622.93,2.62,173.64,10.1,347.58,17.16,521.06,9.24,227.1,6.11,454.61,21.94,681.53,3.5,50.12,2,101.4,1.91,152-.17,130.65,18.24,259.92,22.51,390,7.47,227.37,11.63,454.84,16.86,682.28,5.26,228.64,10.74,457.28,15,685.93,4.94,262.9,33.92,524.63,31.41,788.18-1.1,115.28,6.31,231.65,10.33,347.5.63,18,6,62.12-20.91,97.37C2681.74-4337.92,2647.46-4327.68,2627.3-4323.61Z" transform="translate(3519.64 9617.77)"/><path class="cls-1" d="M1668.31-3898.6c-187.26,1.45-375.32,13.07-562.44.9-17.32-1.12-35.7,2.41-53.4,4.36-27,3-62.19,3.67-64.42-13.43-2.07-15.94,35-21.73,60.61-20.68,207.28,8.51,412.66-14.21,621.74-6,174.24,6.85,352.67-3.18,529.34-2.86,15.65,0,31.36-.23,46.92.52,26.77,1.3,58.45,4.05,58.85,22.8.57,26.39-38.21,13.76-59.07,13.86C2053.74-3898.25,1861-3898.6,1668.31-3898.6Z" transform="translate(3519.64 9617.77)"/><path class="cls-1" d="M1025.78-3884.92c-17,0-29.16-2.54-36.71-7.64-5.06-3.43-8.11-8.08-8.81-13.46s1.32-10.29,5.84-14.43c13.43-12.34,45.77-14.44,62.94-13.75,103.66,4.25,208.88.59,310.63-2.92,101.56-3.53,206.58-7.17,311.09-3.06,107.65,4.23,219,2,326.69-.23,66.37-1.35,135.16-2.78,202.31-2.63l10.26,0c12.16,0,24.7-.05,37.07.55,23,1.12,65.7,3.19,66.26,29.42.17,7.73-2.45,13.73-7.8,17.83-10.46,8-27.83,6-43.15,4.22-5.93-.69-10.92-1-15.92-1.32-149.19.67-300.9.59-447.54.55l-130.58,0c-55.93.43-112.93,1.8-168,3.12-129.54,3.1-263.49,6.33-395-2.23-12.13-.79-25.46.95-38.35,2.65-4.52.59-9,1.18-13.46,1.67A256.63,256.63,0,0,1,1025.78-3884.92Zm16.63-35.91c-19.71,0-38.72,4-44.87,9.62-1.71,1.56-1.81,2.74-1.68,3.68a5.89,5.89,0,0,0,2.9,4.34c3.42,2.32,15.41,7.24,52.72,3.15,4.32-.47,8.69-1,13.08-1.62,13.76-1.8,28-3.66,41.9-2.77,130.73,8.5,264.27,5.29,393.41,2.21,55.2-1.33,112.28-2.7,168.38-3.14l130.7,0c146.66.05,298.32.13,447.46-.54,5-.18,11.59.68,18.09,1.43,11.37,1.33,25.55,3,30.61-.91.66-.51,2.67-2,2.56-7.5-.26-12-24.88-14.9-51.46-16.19-11.9-.57-24.25-.53-36.14-.52h-10.35c-67.09-.16-135.63,1.28-201.89,2.63-107.95,2.21-219.57,4.49-327.79.22-103.82-4.07-208.5-.45-309.74,3.06-102.08,3.55-207.67,7.21-312,2.92C1046.34-3920.79,1044.37-3920.83,1042.41-3920.83Z" transform="translate(3519.64 9617.77)"/><path class="cls-1" d="M-2597.18-4072.61c69.23-1.44,138,1.15,206.74,3.86,18.29.72,41.14,3.36,37.89,10.37-3.57,7.67-16,17.9-47.49,14.69-74.95-7.62-150.93-4.24-226.82-3.74-38.45.25-77.08-2-115.49-3.65-13.89-.59-35.5,2.24-34.68-8.23.71-9.19,14.59-13.32,36.9-13.31Q-2668.65-4072.59-2597.18-4072.61Z" transform="translate(3519.64 9617.77)"/><path class="cls-1" d="M-2388.76-4039.39a117.59,117.59,0,0,1-11.79-.63c-59.11-6-120-5.14-179-4.28-15.75.23-31.51.46-47.27.56-31.07.23-62.6-1.24-93.12-2.64l-22.63-1c-2.77-.12-5.84-.09-9-.08-10.58.08-21.55.15-26.87-4.64a8.76,8.76,0,0,1-3-7.44c.87-11.12,14.72-16.76,41.16-16.76h143c71.63-1.49,143.53,1.36,207,3.87,35.21,1.38,39.58,7.12,41,9a6,6,0,0,1,.71,6.41C-2350.58-4052.58-2359.22-4039.4-2388.76-4039.39Zm-127.36-12.9c38.88,0,78.06,1,116.6,4.93,32.92,3.34,41.18-8.62,42.92-12.37-.75-.91-8.49-4.32-34-5.33-63.32-2.5-135.1-5.35-206.43-3.86h-143.14c-11.88,0-31.82,1.29-32.49,9.87a2,2,0,0,0,.61,1.88c2.72,2.46,13,2.36,20.48,2.33,3.31,0,6.56-.05,9.48.08l22.66,1c30.38,1.39,61.78,2.84,92.58,2.63,15.73-.11,31.46-.33,47.19-.56C-2558.71-4052-2537.45-4052.29-2516.12-4052.29Z" transform="translate(3519.64 9617.77)"/><path class="cls-1" d="M1179.14-4059.72c32.21-14.91,72.87-17.28,111.77-17.56,194.37-1.4,388.85-4.57,583-6.71,123.78-1.37,249.51-1.89,373.91-7.49,35.86-1.62,75.53-.43,108.8,5.48,42.87,7.6,82.82,25.87,74.85,47.71-9.49,26-63.36,10.26-93.56,9.36-344.37-10.25-689.08-6.59-1033.65-8.18C1258.82-4037.32,1205.82-4031,1179.14-4059.72Z" transform="translate(3519.64 9617.77)"/><path class="cls-1" d="M-1175.54-3904.1c50.42-9.44,114.1-10.94,175-11.12,304.34-.88,608.84-2.89,912.84-4.24,193.82-.87,390.68-1.19,585.47-4.74,56.14-1,118.26-.27,170.34,3.47,67.13,4.81,129.69,16.36,117.2,30.18-14.85,16.43-99.2,6.49-146.48,5.92-539.21-6.48-1079-4.16-1618.48-5.17C-1050.79-3889.93-1133.78-3885.91-1175.54-3904.1Z" transform="translate(3519.64 9617.77)"/><path class="cls-1" d="M733-3874.4c-18.45,0-38.17-1-56.26-1.94-14-.71-27.27-1.4-38.45-1.53-391.08-4.7-789.13-4.78-1174.08-4.85q-222,0-443.93-.33c-11,0-22.31.06-33.69.14-66.24.47-134.65,1-175.2-16.72l-15.31-6.66,20.77-3.89c53.68-10.05,119.42-11.6,182.49-11.79q289.71-.86,579.41-2.58,166.76-.87,333.35-1.66l84.42-.35c164.3-.67,334.17-1.36,500.43-4.39,64.07-1.17,125.94.11,174.36,3.57,23.71,1.71,102.89,8.47,126.46,24.17,7.15,4.76,8.55,9.91,4,14.89C791.85-3877.29,764.23-3874.4,733-3874.4Zm-1716.2-22.15h3.65q221.87.4,443.78.33c385.2.07,783.53.14,1175.15,4.84,12.19.15,26.73.88,41.94,1.66,34.2,1.75,81,4.14,87.48-3.05.84-.92,1.25-2-1.28-3.66-10.2-6.8-52.39-14.06-102.59-17.66-45.86-3.3-104.93-4.51-166.34-3.37-166.89,3-337.09,3.73-501.71,4.39l-84.37.36Q-254-3912-420.78-3911q-289.74,1.52-579.61,2.59c-48.2.14-97.83,1.09-140.26,6.28,32.6,6.44,80.15,6.09,126.61,5.77C-1003.65-3896.48-993.31-3896.55-983.2-3896.55Z" transform="translate(3519.64 9617.77)"/><path class="cls-1" d="M-1392-3736.86H2473.29c34.76,0,34.81-54,0-54H-1392c-34.76,0-34.81,54,0,54Z" transform="translate(3519.64 9617.77)"/><path class="cls-1" d="M-178.31-3530H2818.1c34.76,0,34.81-54,0-54H-178.31c-34.76,0-34.82,54,0,54Z" transform="translate(3519.64 9617.77)"/><path class="cls-1" d="M-1423.08-3525.95H1771.28q401.43,0,802.87-.41c7.81,0,15.61.08,23.42.33,35.19,1.13,70.26-1.74,105.45-1.4,34.36.33,65.64,3.36,100-1,26.85-3.43,65.38-5.59,74-37.65,6.81-25.35-2.39-64.14-15.08-86.19-4.6-8,.94,5.08-1.44-2.48-1.64-5.19-3.48-10.32-5.06-15.53-6-19.76-11.1-39.8-16.21-59.8-8.65-33.87-16.84-67.85-24.94-101.86-8.06-33.8-60.16-19.49-52.09,14.37,12.77,53.59,24.95,107.6,40.78,160.4,3,10.08,6.26,20,10.8,29.56,4.28,9,7.16,16.89,8.55,26.95.53,3.85-.19,16.76,1.95,19.42.75.93.73,4.05,3.39-2.77,2.44-6.24-.2-2.43-7.53-.93a309.87,309.87,0,0,1-88.2,4.78c-42.74-3.58-85.55,1.65-128.33.36-8.32-.25-16.61-.53-24.93-.55-249.4-.61-498.82.41-748.22.41H-1423.08c-34.76,0-34.82,54,0,54Z" transform="translate(3519.64 9617.77)"/><path class="cls-1" d="M2509.63-3980.24c-.56,37.45-1.91,76.24-11.69,112.63a91.14,91.14,0,0,1-5,14.6c-2,4.37-6.69,16.31-11.29,18.77.92-.5,6.66-7.45,2.05-2.83-2.73,2.74-5.19,5.74-8,8.43a62.12,62.12,0,0,1-11.76,9.14c-.74.43-6.79,3.05-2.55,1.28,4.41-1.84-3.06,1-3.82,1.31-5.1,1.77-10.3,3.27-15.52,4.66-15,4-30.33,6.94-45.66,9.47-41.81,6.9-84.24,10.06-126.54,11.9-34.63,1.5-34.82,55.53,0,54,48.34-2.1,96.71-6.29,144.44-14.42,26-4.44,56.22-9,79.26-22.89,68-41,69.06-136.37,70.1-206.07.53-34.77-53.49-34.79-54,0Z" transform="translate(3519.64 9617.77)"/><path class="cls-1" d="M-2613.83-4246H2645.69c34.76,0,34.82-54,0-54H-2613.83c-34.76,0-34.81,54,0,54Z" transform="translate(3519.64 9617.77)"/><path class="cls-1" d="M-2466.76-4232.88a4552.76,4552.76,0,0,1,707.94-2.34c34.68,2.59,34.52-51.45,0-54a4552.76,4552.76,0,0,0-707.94,2.34c-34.41,2.8-34.71,56.85,0,54Z" transform="translate(3519.64 9617.77)"/><path class="cls-1" d="M-2078.68-4286.19c-56.54,10.79-114.21,13.67-171.61,9.64v54c60.34-3.54,121.23-1.65,181.09,6.95,14.42,2.07,29-3.55,33.23-18.87,3.48-12.68-4.34-31.14-18.87-33.22-64.83-9.31-130-12.72-195.45-8.88-14.56.85-27,11.8-27,27,0,15.47,12.4,26,27,27,62.27,4.37,124.68.13,186-11.57,14.33-2.74,22.5-20,18.86-33.23-4.12-15-18.85-21.61-33.23-18.86Z" transform="translate(3519.64 9617.77)"/><path class="cls-1" d="M-2842.87-4149.39c27.09-1,53-9,79-15.94,28.76-7.62,57.51-15.32,86.31-22.79,27.38-7.1,54.84-13.92,82.5-19.88q20.72-4.47,41.58-8.23c9.52-1.69,30.18-7.9,37.41-6.43l-11.92-6.95,2.27,2c25.83,23.14,64.16-14.94,38.2-38.2-22.09-19.8-60.69-6.19-86.73-1.38-29.95,5.53-59.65,12.33-89.19,19.69-29.73,7.4-59.32,15.34-88.93,23.19-29.11,7.71-60.26,19.74-90.52,20.86-34.65,1.29-34.82,55.31,0,54Z" transform="translate(3519.64 9617.77)"/><path class="cls-1" d="M-2864.46-4159.82a863.73,863.73,0,0,0,82-28.55c25-10.19,49.33-21.46,69.43-39.95,20.31-18.68,31-43.78,40.25-69.19,10.14-27.82,20-55.78,27.54-84.44,8.85-33.65-43.24-48-52.09-14.36-6.76,25.69-15.42,50.78-24.41,75.77-7.19,20-13.83,39.54-29.49,54-13.14,12.14-34.25,21.55-50.69,28.1q-37.8,15.08-76.87,26.5c-14,4.13-22.78,19-18.87,33.23,3.82,13.91,19.18,23,33.23,18.86Z" transform="translate(3519.64 9617.77)"/><path class="cls-1" d="M-2735.84-4398.94c10.8,95.09-87.86,143.22-161,174-86.18,36.2-165.44,79.6-238,139-26.92,22,11.49,60,38.2,38.19a786,786,0,0,1,118.39-79.91c44.15-24.34,90.92-42.09,136.75-62.79,82.54-37.27,171.29-106.83,159.74-208.46-1.65-14.49-11.24-27-27-27-13.32,0-28.67,12.42-27,27Z" transform="translate(3519.64 9617.77)"/><path class="cls-1" d="M-2205.83-3988c-8.83,31.73-10.61,64.56-14.1,97.15-3.43,32.13-10.15,63.86-18.53,95-17.34,64.51-42.35,126.59-67.3,188.44-5.46,13.53,6,29.68,18.86,33.23,15.43,4.23,27.75-5.29,33.23-18.87,25-61.85,50-123.93,67.3-188.44a708.88,708.88,0,0,0,19-97.07c4-31.91,4.92-64,13.59-95.12,9.33-33.54-42.77-47.86-52.09-14.36Z" transform="translate(3519.64 9617.77)"/><path class="cls-1" d="M-725.55-5745.87c-4.73-121.17-18.09-386.46-176.25-650.25-91.23-152.16-176-212.75-220.26-240-87.56-53.84-168.08-70.43-193.89-75.13-22.3-4.07-110.26-18.69-221.67,4.55-67.46,14.08-167,46.92-308.54,160.63-194.32,156.07-307.56,335.74-362.29,435.29-53.27,96.9-184.39,360.31-189.54,718.12a1519.74,1519.74,0,0,0,18.15,256.84c12.06,101.48,47.64,287.95,168,438.53,46.55,58.25,86.79,90.06,98.91,96.55,123,65.93,254.19,110.09,418,105.52,96-7.77,238-32.12,390.14-109,151-76.37,242.58-169.49,264.46-192.31,105.21-109.73,155.73-217.76,196.21-306.29a1352.78,1352.78,0,0,0,88.63-261.62C-724.38-5523.66-722-5655.92-725.55-5745.87Zm-692.58,423c-53.86,46.07-122.56,68.09-194.9,42.12-71.11-25.54-97.37-90.57-119-153.64-11.07-32.37-6.29-70-8.68-105.25,6.7-204.87,80-381.31,243.6-510.6,123.15-97.35,254-45.56,296.67,105.11C-1127.49-5687.58-1225-5488-1418.13-5322.85Z" transform="translate(3519.64 9617.77)"/><path class="cls-1" d="M-1279.63-4052.41c59-9.44,133.6-10.94,204.92-11.11q534.54-1.33,1068.87-4.25c226.93-.86,457.45-1.19,685.53-4.74,65.73-1,138.47-.27,199.45,3.47,78.61,4.81,151.86,16.37,137.23,30.19-17.38,16.42-116.15,6.49-171.52,5.92-631.37-6.48-1263.36-4.17-1895.1-5.18C-1133.56-4038.24-1230.73-4034.22-1279.63-4052.41Z" transform="translate(3519.64 9617.77)"/><path class="cls-1" d="M955.11-4022.71c-21.61,0-44.69-1-65.87-1.93-16.35-.72-31.94-1.41-45-1.54-457.91-4.7-924-4.77-1374.74-4.85q-259.9,0-519.81-.33c-12.93,0-26.12.06-39.45.14-77.57.47-157.66,1-205.15-16.71l-17.93-6.67,24.33-3.89c62.85-10,139.83-11.6,213.68-11.79q339.22-.84,678.44-2.58,195.26-.87,390.33-1.66l98.85-.35c192.37-.67,391.28-1.36,586-4.39,75-1.16,147.47.11,204.16,3.58,27.76,1.7,120.47,8.46,148.07,24.16,8.38,4.76,10,9.91,4.74,14.9C1024-4025.59,991.68-4022.71,955.11-4022.71Zm-2009.53-22.15h4.28q259.79.42,519.63.33c451,.07,917.45.14,1376,4.85,14.27.15,31.3.87,49.1,1.65,40,1.75,94.87,4.14,102.45-3,1-.91,1.46-2-1.5-3.66-11.95-6.8-61.36-14.06-120.13-17.66-53.7-3.29-122.87-4.51-194.78-3.36-195.41,3-394.7,3.72-587.45,4.39l-98.79.35q-195,.75-390.27,1.66-339.25,1.52-678.67,2.59c-56.43.14-114.55,1.09-164.23,6.28,38.17,6.45,93.85,6.1,148.25,5.77C-1078.36-4044.79-1066.25-4044.86-1054.42-4044.86Z" transform="translate(3519.64 9617.77)"/><path class="cls-1" d="M-2746.36-3942.08c96.3-1.87,191.93,1.5,287.58,5,25.45,1,57.24,4.39,52.71,13.55-5,10-22.2,23.39-66,19.2-104.26-10-210-5.55-315.53-4.89-53.49.33-107.22-2.63-160.66-4.77-19.32-.78-49.37,2.93-48.24-10.75,1-12,20.3-17.41,51.34-17.4Q-2845.79-3942-2746.36-3942.08Z" transform="translate(3519.64 9617.77)"/><path class="cls-1" d="M-2456.44-3898.67c-5,0-10.48-.26-16.4-.82-82.23-7.86-167-6.71-249-5.59-21.91.3-43.84.59-65.76.73-43.21.31-87.08-1.62-129.53-3.45l-31.48-1.32c-3.86-.16-8.13-.12-12.48-.1-14.72.1-30,.2-37.38-6.07a11.11,11.11,0,0,1-4.12-9.71c1.21-14.54,20.48-21.91,57.25-21.91h.13l142,0h56.75c99.64-1.94,199.66,1.78,287.94,5.06,49,1.81,55,9.3,57,11.77a7.43,7.43,0,0,1,1,8.36C-2403.32-3915.9-2415.35-3898.67-2456.44-3898.67Zm-177.16-16.86c54.09,0,108.58,1.34,162.2,6.46,45.79,4.36,57.28-11.28,59.7-16.18-1-1.18-11.81-5.64-47.35-7-88.09-3.27-187.94-7-287.16-5h-199.11c-16.54,0-44.27,1.68-45.2,12.89a2.56,2.56,0,0,0,.84,2.46c3.79,3.21,18.06,3.08,28.49,3,4.6,0,9.12-.07,13.19.1l31.52,1.33c42.27,1.82,85.95,3.71,128.79,3.43,21.88-.13,43.77-.43,65.65-.73C-2692.85-3915.12-2663.28-3915.53-2633.6-3915.53Z" transform="translate(3519.64 9617.77)"/></g></g></svg>