<svg xmlns="http://www.w3.org/2000/svg" viewBox="0 0 6270.05 6507.76"><g id="Layer_2" data-name="Layer 2"><g id="Layer_1-2" data-name="Layer 1"><path d="M5939.42-6277.89a24.45,24.45,0,0,1-3.19-5.68c-34-86-145.86-161.43-145.86-161.43-36.48-24.69,12.9,4.22-226.77-208.06-71-62.85-131.39-136.52-201.38-200.4-32.57-29.73-68.49-64.71-65.25-100.59,2.14-23.63,28.89-45.07,82.15-87.73,3.39-2.71,7.52-4.6,10.6-7.59,141-137,277.9-278.09,430.63-403.18,47.11-38.58,70.66-96.95,99.08-149.85,18-33.56-1.77-67.58-5.14-80.42-20.16-76.84-69-87.11-168.8-201.63-40.78-46.8-61.24-77.92-113.93-121.56-50.38-41.71-75.21-49.31-96.48-48.54-40.62,1.46-64.51,36.57-95.4,62.94-117.5,100.31-238,197.24-357.51,295.26-12.62,10.35-22.23,33.9-41.57,24.44a27.23,27.23,0,0,1-8.7-7c-16.51-20.33-19.58-44-19.58-44-28.26-218.77-4.23-326.3-4.23-326.3,9.48-42.42,14.63-50.76,7.6-63.14-25.82-45.51-135.31-3.45-350.3-14.31-37.41-1.89-75-1.5-112.28-4.5-89.53-7.2-130.88-19.23-160.55,5.53-20.28,16.91-24.89,42.47-27,57.3-23.48,164.91-21.41,1000.45-28,1239.37-11.24,406.49-16.87,609.73-19,619.64-13.87,63.6-9.3,94-.15,154.87,8.57,57.07,23,87.91,47.92,106.4,16.18,12,36.2,19.8,59.65,22.05,141.22,13.53,282,51.45,425.66,7.36,71.31-21.89,110.16-52.76,118.09-123.69,8.9-79.51,14.9-159.33,23.21-238.92,1-9.7,6.06-22.93,13.53-27.13,11.28-6.35,18.29,7.33,24.37,14.92,84.43,105.41,170.77,208.32,269.75,302,44.16,41.78,87.51,83.3,137.69,116.84,80.48,53.79,139.63,45.84,213.78-16.59,54-45.45,108.46-88.7,157.11-141.26,49.68-53.68,118.51-90.57,130.3-170Z" transform="translate(-3162.18 8523.54)"/><path d="M8784-6474.74c2.44-221.94-1.72-321-2-492.49-.16-102.83,1.33-71.25,3.37-368.41.88-128.54.7-148.35,1.69-245.06,1-99.29,1.79-135.89,1.68-201.24-.15-91.56-1.91-165.94-3.37-214.23a287.52,287.52,0,0,0-78-58.43c-78.52-39.83-137.87-22.87-270.59-17.31-212.17,8.9-288.08-24.9-336.83,31.38-22.8,26.33-27.94,58.83-28.74,82.06v546.94c3.12,27.27,3.29,54.9,4.25,82.43.75,21.48,12.74,52.13-17.87,61a45.49,45.49,0,0,1-22.74,0c-68.83-17.8-157.2-253.07-157.21-253.07-93.86-249.89-120.22-287.77-142.9-315.59-30.5-37.41-84.23-93.84-174-135.95-73.06-34.29-151.18-13.69-226.63-21.22-74.56-7.44-159.66,45.59-192.59,113.58v1443.69c-1.75,65.52-3.88,161.54-4.94,280.1-.93,103.67-.51,166,44.78,204.54,9.52,8.11,24.39,18,88.51,33.22,97,22.95,175.5,26.89,214.49,28.4,159.71,6.19,240.07,8.5,264.41-30,5.78-9.15,6.18-32.73,6.73-79.53,1.1-91.79,1.65-137.69,1.53-141.17-5.31-164.52-11.8-365.39,14.47-369.24,3.06-.44,7.82,1.59,15,13.44,32.26,28.18,35.07,70.26,58.2,99,94.26,117,165.5,249.14,262.14,364.86,30.77,36.84,61.36,67.56,104,90.3,141.74,75.56,358.81,65.59,466.15-50.92,47.61-51.68,60-111.73,84.71-231.83C8781.66-6322,8783.14-6395.68,8784-6474.74Z" transform="translate(-3162.18 8523.54)"/><path d="M6741.38-7611.73c10.43-2.94,42-2.72,105-3.32,11.1-.1,28.2-3.45,51.33-3,54.58,1.11,83.15-18.22,87.72-78.28,5-66.21,3.31-132.73,10.84-199.16,4.35-38.37.8-84.74-70.11-100.43-127.79-28.27-256.49-23.21-384.23-32.59-146-10.72-293.52.8-440.29-2-105.76-2-142.11,31.46-135.6,136.93,2.89,46.79,7.11,92.81,2.36,140.67-10.07,101.51,23.08,133.18,124.33,134.56,32.9.45,65.81.82,98.72.69,13-.06,22.55,2.88,29,8.87,10.74,9.92,10.92,25.59,11,30.75.63,46,9.84,501.19,11.38,555.41,0,0,11.05,391-.59,501.44-1.11,10.55-4.1,32.84-21.11,45.82-14.36,10.95-31.15,10.73-43.56,11-43.08.82-100.06,11.32-128.36,31.45-18.95,13.47-27.2,32.8-41,91.85-32.7,139.5-49.05,209.24-26.95,285.45,8.58,29.56,21.8,75.14,57.26,112.85,71.66,76.18,170.55,52.62,443.49,47.57,301.09-5.57,431.06,18.46,501.88-70.81,27.53-34.69,40.56-79.49,41.54-83,15.91-56.26,1.44-83.7-23.57-219.07-21.33-115.45-20.54-148.16-53.9-172.59-23.55-17.25-52.56-21.89-87.11-27.41-64.9-10.38-98.19,4.12-122.84-19.06-17.67-16.61-19.06-41.45-19.59-54.18-12.57-302.1-18.85-453.16-13.57-538.82C6722.11-7360.18,6677.08-7593.62,6741.38-7611.73Z" transform="translate(-3162.18 8523.54)"/><path d="M6396.64-5731.68c70.48,47.59,63.06,118.59,113.45,373.07,31.62,159.67,90.36,456.27,138.1,454.72,26.21-.86,39-91.16,114.78-440.18,56.79-261.67,78.57-344.48,154.69-386.28,22.16-12.17,95.61-12.54,242.52-13.28,185.21-.93,248.72,8.83,279.57,53.11,15.61,22.41,21.13,51.19,24.79,70.26,11.1,57.9-.67,104.94-5.41,123.08-80.58,308.05-131,422.65-131,422.65-12.74,28.95-57.73,186.82-147.72,502.55-54,189.47-115.7,376.87-165.05,567.57-66.1,255.4-83.6,369.46-192,434.8-87.75,52.9-196.5,50.61-235.78,49.78-36.87-.77-155.48-3.26-245.89-66.38-91.66-64-112.12-160.79-161.75-421.28-52.24-274.22-90.61-487.32-110.82-595.92-48-258-72-387-93.45-476.4-31.64-132.11-33.77-270.39-70.26-401.28,0,0-17.4-62.43-5.34-166.68,1.42-12.28,3.85-29,15.61-44.88,26.91-36.34,80.81-38.62,105.41-39.67C6350.67-5746.5,6364.09-5753.66,6396.64-5731.68Z" transform="translate(-3162.18 8523.54)"/><path d="M8894.85-4741.26c-4.62-118.37-17.67-377.52-172.17-635.2-89.11-148.64-171.94-207.83-215.16-234.4-85.54-52.6-164.19-68.8-189.4-73.4-21.78-4-107.71-18.25-216.54,4.45-65.9,13.75-163.11,45.83-301.4,156.9-189.82,152.47-300.44,328-353.9,425.23-52,94.65-180.13,352-185.15,701.49a1483.94,1483.94,0,0,0,17.72,250.9c11.78,99.13,46.54,281.28,164.13,428.38,45.48,56.9,84.78,88,96.62,94.31,120.21,64.41,248.31,107.55,408.29,103.08,93.74-7.59,232.53-31.38,381.11-106.52,147.51-74.6,237-165.57,258.34-187.86,102.77-107.19,152.12-212.71,191.66-299.2a1320.41,1320.41,0,0,0,86.58-255.56C8896-4524.19,8898.28-4653.4,8894.85-4741.26ZM8218.3-4328c-52.61,45-119.72,66.52-190.38,41.14-69.47-24.95-95.13-88.47-116.22-150.09-10.82-31.61-6.15-68.37-8.48-102.8,6.55-200.14,78.19-372.49,238-498.79,120.3-95.09,248.13-44.51,289.81,102.68C8502.22-4684.32,8406.93-4489.33,8218.3-4328Z" transform="translate(-3162.18 8523.54)"/><path d="M9339.47-3123.44c-2.67-27.06-6.39-73.7,20.53-110.4,9.44-12.87,11.79-19.12,26.14-30.47,23.17-18.33,29-60.05,24.29-92.75-20.2-141.23-17.71-283.67-19.17-425.31-2.81-271.26-27.55-541.39-30.74-812.8-3.15-268.17-7.79-536.64-17.39-804.93-13.25-370.14-16.71-424.11-21.11-600.62-19.19-769.64-98.58-1539.32-68.58-2308.61.69-17.84,4-78.43-33.13-108-23.84-19-54.29-17.16-67-16.5-73.45,3.85-202.92,2.84-377.4-.07-18.31-.31-220.76-1-626.21-9.34-383.67-7.87-365.48-9.28-627.76-14.5-367.78-7.33-416.19-6-818.1-13-451.42-7.85-677.14-11.77-955-21.73-228.17-8.17-575.24-21-1003.23-20.16-15.94,0-27.25.25-49.42.35-336.73,1.45-591-2-801.72-10-61.76-2.34-167.91-6.91-292.21,39.25-44.09,16.37-196.48,75.32-301.48,230.09-59.47,87.65-75.44,164.33-103,296.71-7.07,33.94-29.52,147.1-35.15,437.28-1.64,84.73,1.07,204.47,4.18,444,1.25,96.16,2.9,198.72,5.34,329.5,2.87,153.12,1.79,189.91,3,516.43,1.08,299.12,5.8,956.35,11.41,1449.71,2.47,216.94,6.36,527.36,12.35,905,9.29,464.87,41.93,821.5,74.1,1000.38,13,72.54,40.48,196.26,134.54,271.52,42.19,33.76,92.57,53.39,97.41,55.44,51.8,21.94,114.44,25,172.17,25,183.69-.07,367.52,10.37,551.13-3.55,10.85-.82,26-4.44,32,2.55,4.94,5.74,1.94,15.45.83,19.25-21.39,72.88-33.86,148.51-60,219.83-26.65,72.75-33,96.59-21.51,121.71,9,19.58,26.7,39.28,49.08,44,25.4,5.38,52.86,3,77.12-9.89,103.46-54.72,214.84-93.44,314.4-156.09,34.93-22,71.21-42.68,105.79-64.18,32.24-20.05,40.31-10.1,52.88,12.48,44,79.07,94.59,154.59,128.44,239.24a267.32,267.32,0,0,0,35.19,62.69c16.9,22.06,43.93,20.35,66.93,13.75a53,53,0,0,0,12.34-7.43c10.65-8.84,125.82-118.45,203.31-488.3,3-14.52,11.19-54.08,39.15-65.68a47,47,0,0,1,23.16-3L8062.88-2571c607.17-31.69,939-25.78,1123.33-3.37,48.85,5.94,207.23,27.61,240.83-37.05,12.49-24,.89-46.74-18.52-102.73C9408.52-2714.19,9368.37-2830,9339.47-3123.44Zm-5879.93,99.36c-25.73,56.31-28,115.68-30.39,176.17a810.25,810.25,0,0,0,3.93,117.18c-62.89-123.51-86.13-227.09-95.77-298.1-10.71-78.9-11.61-181.29-13.41-386.07-.27-30.42-.33-52.94-.34-53.73-.69-111.94-2.52-398.87-5.93-863.09-2.85-386.62-5.25-712.91-15.55-1137.35-8.83-364.07-14.91-405.46-20-739.66-2.75-178.43-4.06-393.3-4.77-815.79-.9-528.45,1.85-989.84,174.56-1176.9,46.44-50.29,132.25-110.09,211.16-151.06,0,0,84.16-59.3,200.63-44,30.93,4.06,49.06,7,45.92,43.87-2.6,30.44.95,61.36,1,92.06q.15,733.71.19,1467.41.53,489.95,3.15,979.89c1.24,256.1,4.9,512.19,5.15,768.28.19,191.89-5.08,383.79-4.64,575.68.31,133.6,7.23,267.16,9.17,400.77,1.4,96.4-1.85,90.9-3,209-4.05,423,18.2,457.94-27.33,517.13-58.71,76.31-111.45,38.8-316.37,190.29C3523-3112.32,3484.4-3078.49,3459.54-3024.08Zm795.76,386.25c-101.86,21.09-205.09,14.74-308,15.63-15.36.14-30.73,0-46.09,0-74.62,0-149.34-2.17-223.83.93-13.87.57-24.73-1.89-33.63-6.66-5.58-3-25.84-14-31.46-36.83-1.57-6.41-4-16.38.18-24.75,10-19.84,50-16.22,122.39-15.86,28.31.14,56.63-1.81,84.93-1.15,31.88.74,361.94-.15,432.53,0,19.93,0,42-1.31,44,26.82S4278.68-2642.67,4255.3-2637.83ZM5146.93-2918a1868.83,1868.83,0,0,1-84.56,501.34,1854.73,1854.73,0,0,1-99.13,250.33q-68-121.52-135.26-249.68-33.64-64.17-65.75-127.56c-22,18.84-53.14,44.88-91.46,74.71-53.19,41.38-120.64,93.5-212.81,147.6a1601.9,1601.9,0,0,1-167.29,85.33q23-76.35,46-152.7c47.72-142.34,92.21-293.92,131.36-454.49q17.13-70.26,32-138.89l342.14,17.45,290.89-.55Zm46.37-143.27c-74.83-4.23-151.1-5.8-225.54-8.32-168-5.69-336.19,4-503.82-8.94-21.42-1.66-44,3.9-63.55,14.41-3.57,42.33-10.66,84.23-12.7,126.72-2.85,59.36-6.1,76-17.74,93.23-31.78,47-110.34,45.4-143.28,44.89-357.39-5.53-631.09,29.8-673.66-69.05-8.77-20.36-11.79-44.63-11.79-44.63-8.17-65.61,24.31-118.35,32.92-131.36a147.77,147.77,0,0,1,11.79-15.82c41.84-48.32,101.35-68.3,149.82-82.93,96.71-29.2,145.07-43.8,202.93-56.2,61.12-13.09,112.33-21.58,148.2-26.94L8843.49-3247q63.06.49,127.71,2,50.8,1.18,100.6,2.95c-41,104.45-22.64,208.39-26,310.82-.08,2.18.69,4.45.32,6.55-5.42,30.41,53.6,58.47,11.17,84.46-24.36,14.93-64.07,4.85-96.87,6-184.78,6.31-369.91,22.52-554.24,16.1-187-6.51-372.48-1-557.42,21.45-122.29,14.86-240.72-19-362.62-16-189.14,4.57-378.74-6-568.21-8.35-201.19-2.54-401.8,16.7-603.48,2.83-154.9-10.65-311.41-4.74-466.9,1.5-182.08,7.3-364-.79-545.94,3.5-29.6.7-37.84-11.93-41.34-37.43-5.69-41.47-10.88-83.2-2.1-124.25C5270.09-3030.55,5234.82-3058.89,5193.3-3061.23ZM9264.2-2669.3a20.44,20.44,0,0,1-5.22,10c-3.91,6.3-10.59,10.86-20.28,10.86l-3674.82,3.35c-135.66.56-236.76.42-280.95,1.31-6.67.13-23.19.52-34.53-10.28-15.35-14.62-11.79-40.8-7.87-69.63,4.81-35.45,15.82-43.08,19.68-45.32a31.68,31.68,0,0,1,14-4.1H9042c20.19-2.86,40.17-6.6,59.1-15.7,6.8-3.26,13.68-6.42,20.54-9.62a268.12,268.12,0,0,0,30.34-24.91c1.19-2.32,2.37-4.65,3.47-7,.14-.3.39-.79.66-1.3.74-1.44,1.25-3.08,1.84-4.58a36.68,36.68,0,0,1,2.28-4.76c3.37-14.24,4.5-28.24,2.46-40.26a960.22,960.22,0,0,1,2.27-337.15c3.17-17.23,2.55-37.1,27.8-36.49,32.3.78,25.15,26.06,23.22,43.55-15.25,138.1,4.6,272.7,30.52,408.16,1.39,7.26,2.39,13.8,3.18,20a27.85,27.85,0,0,1,1.33,13.9c.16,2.73.22,5.32.21,7.81a47.47,47.47,0,0,1,1.52,4.83c1.14,5.1,1.5,10.66,2.06,15.91.09.9.17,1.87.26,2.79,1,3,2,6.08,3,9.12C9264.45-2709.26,9268.34-2689.86,9264.2-2669.3Zm-97.36-682.62c-116,4.9-295,11.2-514.23,13.47-330.1,3.42-388.5-6-849.93-9-229.1-1.46-479.21-3.05-805,3.37-145.71,2.87-222.77,5.69-387.36,6.73-189.21,1.2-231.55-1.62-499.63-1.12-148.94.28-269.33,1.39-359.29,2.25-140.23,1.32-165.61,2.09-363.77,4.49-251.45,3-395.67,4.05-469.32,4.49-10.8.06-197.58,1-444.61-4.49-287.91-6.45-394.67-15.86-440.13-89.82-10.77-17.53-14.8-33.32-20.21-148.21-7.06-150.09-10.59-225.14-6.74-300.9,16.55-325.57,3.84-652.14,19-977.77,22.5-483.92,8.48-435-6.74-2086-2.68-290.87-.45-581.78-.45-872.68,0-179.31,1.16-358.64-.88-537.93-.23-20.07,1.93-32.55,9.32-39.83,13.45-13.25,37-9.17,41.73-8.53,42.23,5.76,650,18,1508.91,33,1221.5,16.84,1782.12,23.83,2055.76,26.79q353.82,3.84,707.63,9c115.21,1.65,231.57-1.16,345.24,5.34,127.6,7.29,255.27,14.17,383.18,16.53,39.25.73,37.66,25.89,36.08,54.44-11.26,203.44,20,405.33,23,608.51,2.55,169.62,9.85,339.53,16.75,509,9,221.85,6,444.1,21.44,665.76,3.41,49,1.92,99.05,1.86,148.45-.16,127.63,17.82,253.91,22,381,7.3,222.1,11.36,444.31,16.47,666.49,5.14,223.34,10.49,446.69,14.69,670,4.83,256.81,33.14,512.49,30.69,769.94-1.07,112.6,6.16,226.29,10.09,339.46.61,17.58,5.9,60.68-20.43,95.11C9220-3365.9,9186.53-3355.9,9166.84-3351.92Z" transform="translate(-3162.18 8523.54)"/><path d="M8230.05-2936.75c-182.93,1.42-366.64,12.77-549.43.88-16.91-1.1-34.87,2.36-52.16,4.26-26.36,2.91-60.75,3.59-62.92-13.12-2-15.57,34.22-21.23,59.2-20.2,202.48,8.31,403.11-13.88,607.35-5.85,170.2,6.7,344.5-3.1,517.09-2.79,15.28,0,30.63-.22,45.83.51,26.15,1.27,57.1,4,57.49,22.28.56,25.77-37.33,13.44-57.7,13.53C8606.56-2936.41,8418.3-2936.75,8230.05-2936.75Z" transform="translate(-3162.18 8523.54)"/><path d="M7602.39-2923.39c-16.65,0-28.48-2.48-35.86-7.46-4.95-3.35-7.92-7.89-8.61-13.14s1.3-10.06,5.7-14.1c13.12-12.06,44.71-14.11,61.49-13.43,101.26,4.14,204.05.58,303.44-2.86,99.21-3.44,201.79-7,303.89-3,105.16,4.14,213.94,1.92,319.13-.22,64.83-1.32,132-2.71,197.62-2.57l10,0c11.87,0,24.13-.05,36.21.54,22.43,1.09,64.18,3.11,64.73,28.74.17,7.55-2.4,13.41-7.62,17.41-10.22,7.83-27.19,5.86-42.15,4.13-5.8-.67-10.67-1-15.55-1.29-145.74.65-293.94.57-437.19.53l-127.55,0c-54.64.43-110.32,1.76-164.17,3.06-126.53,3-257.39,6.17-385.88-2.19-11.85-.76-24.87.94-37.47,2.59-4.4.58-8.8,1.16-13.14,1.64A251.6,251.6,0,0,1,7602.39-2923.39Zm16.25-35.07c-19.26,0-37.83,3.86-43.84,9.39-1.67,1.53-1.77,2.68-1.64,3.6a5.75,5.75,0,0,0,2.83,4.24c3.35,2.26,15.06,7.07,51.5,3.08,4.23-.46,8.49-1,12.78-1.59,13.44-1.76,27.37-3.58,40.93-2.7,127.7,8.3,258.15,5.17,384.31,2.15,53.92-1.29,109.68-2.63,164.48-3.06l127.67,0c143.27,0,291.42.12,437.1-.53,4.89-.18,11.32.67,17.68,1.4,11.1,1.29,25,2.89,29.9-.9.65-.49,2.61-2,2.5-7.32-.26-11.76-24.31-14.55-50.27-15.81-11.62-.56-23.69-.52-35.31-.51h-10.1c-65.54-.16-132.5,1.25-197.22,2.56-105.45,2.16-214.49,4.39-320.2.22-101.42-4-203.68-.44-302.57,3-99.73,3.47-202.87,7-304.79,2.85C7622.47-2958.42,7620.55-2958.46,7618.64-2958.46Z" transform="translate(-3162.18 8523.54)"/><path d="M4063.29-3106.73c67.62-1.4,134.78,1.12,201.95,3.77,17.87.71,40.19,3.28,37,10.13-3.48,7.5-15.59,17.48-46.38,14.35-73.22-7.44-147.45-4.14-221.58-3.65-37.56.24-75.29-2-112.82-3.57-13.56-.58-34.67,2.19-33.87-8,.69-9,14.25-13,36.05-13Q3993.46-3106.71,4063.29-3106.73Z" transform="translate(-3162.18 8523.54)"/><path d="M4266.88-3074.28a114.94,114.94,0,0,1-11.52-.62c-57.74-5.87-117.27-5-174.85-4.17-15.39.22-30.79.44-46.18.54-30.35.23-61.15-1.21-91-2.58l-22.11-1c-2.71-.12-5.71-.08-8.76-.07-10.34.08-21.05.15-26.25-4.54a8.55,8.55,0,0,1-2.89-7.26c.85-10.87,14.37-16.38,40.2-16.38h.09l99.74,0h39.85c70-1.45,140.21,1.33,202.2,3.78,34.39,1.36,38.66,7,40.06,8.8a5.86,5.86,0,0,1,.7,6.25C4304.18-3087.16,4295.73-3074.29,4266.88-3074.28Zm-124.41-12.61c38,0,76.25,1,113.9,4.83,32.16,3.26,40.23-8.43,41.93-12.09-.73-.89-8.29-4.22-33.26-5.2-61.85-2.45-132-5.23-201.65-3.78H3923.57c-11.61,0-31.09,1.25-31.74,9.64a2,2,0,0,0,.59,1.83c2.66,2.4,12.68,2.31,20,2.28,3.23,0,6.41,0,9.26.08l22.13,1c29.68,1.36,60.36,2.78,90.44,2.57,15.37-.1,30.74-.32,46.1-.55C4100.87-3086.58,4121.63-3086.89,4142.47-3086.89Z" transform="translate(-3162.18 8523.54)"/><path d="M7752.2-3094.14c31.46-14.57,71.18-16.88,109.19-17.15,189.87-1.37,379.84-4.47,569.5-6.56,120.92-1.34,243.74-1.84,365.26-7.32,35-1.58,73.78-.41,106.27,5.36,41.88,7.43,80.91,25.27,73.12,46.6-9.26,25.36-61.89,10-91.39,9.15-336.4-10-673.13-6.44-1009.73-8C7830-3072.26,7778.26-3066,7752.2-3094.14Z" transform="translate(-3162.18 8523.54)"/><path d="M5452-2942.12c49.26-9.22,111.46-10.69,171-10.86,297.3-.87,594.74-2.82,891.71-4.15,189.33-.84,381.64-1.16,571.92-4.63,54.84-1,115.52-.26,166.4,3.39,65.58,4.7,126.68,16,114.48,29.49-14.5,16-96.9,6.34-143.09,5.78-526.73-6.33-1054-4.07-1581-5.05C5573.88-2928.28,5492.82-2924.35,5452-2942.12Z" transform="translate(-3162.18 8523.54)"/><path d="M7316.38-2913.11c-18,0-37.28-1-54.95-1.89-13.64-.69-26.64-1.37-37.57-1.5-382-4.59-770.86-4.66-1146.89-4.73q-216.84,0-433.66-.33c-10.79,0-21.79.06-32.91.14-64.71.46-131.54.93-171.15-16.33l-15-6.51,20.3-3.8c52.43-9.81,116.65-11.34,178.26-11.52q283-.83,566-2.52,162.89-.86,325.63-1.62l82.46-.35c160.5-.65,326.44-1.32,488.85-4.28,62.59-1.14,123,.1,170.33,3.49,23.15,1.66,100.5,8.27,123.52,23.6,7,4.66,8.36,9.69,4,14.56C7373.87-2915.93,7346.89-2913.11,7316.38-2913.11Zm-1676.47-21.64h3.56q216.73.4,433.51.32c376.29.07,765.4.14,1148,4.74,11.91.15,26.11.85,41,1.61,33.41,1.71,79.14,4,85.46-3,.82-.9,1.22-1.95-1.25-3.58-10-6.64-51.18-13.74-100.22-17.25-44.8-3.22-102.5-4.41-162.49-3.29-163,3-329.29,3.64-490.1,4.29l-82.41.35q-162.71.72-325.58,1.62-283,1.48-566.19,2.53c-47.09.13-95.57,1.06-137,6.14,31.85,6.29,78.3,5.95,123.68,5.63C5619.93-2934.68,5630-2934.75,5639.91-2934.75Z" transform="translate(-3162.18 8523.54)"/><path d="M5240.53-2778.75H9016.39c34,0,34-52.77,0-52.77H5240.53c-34,0-34,52.77,0,52.77Z" transform="translate(-3162.18 8523.54)"/><path d="M6426.17-2576.65h2927c34,0,34-52.77,0-52.77h-2927c-34,0-34,52.77,0,52.77Z" transform="translate(-3162.18 8523.54)"/><path d="M5210.21-2572.72H8330.63q392.15,0,784.29-.4c7.63,0,15.25.07,22.87.32,34.39,1.1,68.65-1.7,103-1.37,33.56.33,64.12,3.29,97.65-1,26.23-3.36,63.87-5.47,72.29-36.79,6.65-24.76-2.33-62.65-14.73-84.19-4.5-7.81.92,5-1.41-2.42-1.6-5.08-3.39-10.08-4.94-15.18-5.84-19.3-10.84-38.87-15.83-58.41-8.45-33.08-16.45-66.28-24.37-99.5-7.87-33-58.77-19-50.88,14,12.47,52.36,24.37,105.11,39.83,156.7,3,9.84,6.12,19.57,10.55,28.87,4.18,8.78,7,16.5,8.35,26.32.52,3.77-.18,16.38,1.91,19,.74.91.71,4,3.32-2.7,2.38-6.09-.2-2.37-7.36-.91a302.94,302.94,0,0,1-86.17,4.67c-41.74-3.5-83.56,1.61-125.35.35-8.13-.24-16.23-.51-24.36-.53-243.62-.6-487.27.4-730.89.4H5210.21c-33.95,0-34,52.77,0,52.77Z" transform="translate(-3162.18 8523.54)"/><path d="M9051.9-3016.5c-.55,36.58-1.87,74.47-11.42,110a89.23,89.23,0,0,1-4.9,14.26c-2,4.27-6.53,15.94-11,18.34.9-.48,6.51-7.27,2-2.76-2.67,2.67-5.08,5.6-7.81,8.23a60,60,0,0,1-11.49,8.93c-.72.42-6.63,3-2.49,1.25,4.31-1.79-3,1-3.73,1.28-5,1.73-10.07,3.19-15.17,4.55-14.67,3.91-29.62,6.78-44.6,9.25-40.84,6.74-82.28,9.84-123.61,11.63-33.83,1.47-34,54.25,0,52.77,47.22-2.05,94.48-6.14,141.1-14.09,25.42-4.33,54.92-8.77,77.43-22.36,66.42-40.09,67.45-133.22,68.48-201.3.51-34-52.26-34-52.77,0Z" transform="translate(-3162.18 8523.54)"/><path d="M4047-3276.14H9184.81c34,0,34-52.77,0-52.77H4047c-33.95,0-34,52.77,0,52.77Z" transform="translate(-3162.18 8523.54)"/><path d="M4190.69-3263.29a4447.25,4447.25,0,0,1,691.55-2.29c33.88,2.53,33.72-50.25,0-52.77a4447.25,4447.25,0,0,0-691.55,2.29c-33.62,2.74-33.91,55.53,0,52.77Z" transform="translate(-3162.18 8523.54)"/><path d="M4569.79-3315.37c-55.23,10.54-111.57,13.36-167.64,9.42v52.77c58.94-3.46,118.42-1.61,176.9,6.78,14.09,2,28.34-3.46,32.46-18.42,3.4-12.39-4.24-30.42-18.43-32.46-63.34-9.09-127-12.42-190.93-8.67-14.23.83-26.39,11.53-26.39,26.39,0,15.11,12.12,25.38,26.39,26.38,60.83,4.27,121.79.13,181.67-11.3,14-2.68,22-19.51,18.43-32.46-4-14.66-18.42-21.11-32.46-18.43Z" transform="translate(-3162.18 8523.54)"/><path d="M3823.29-3181.73c26.45-1,51.77-8.84,77.18-15.57,28.1-7.45,56.18-15,84.31-22.26,26.75-6.94,53.58-13.6,80.6-19.43,13.49-2.91,27-5.62,40.62-8,9.29-1.66,29.47-7.72,36.54-6.29l-11.65-6.79,2.22,2c25.23,22.61,62.67-14.59,37.32-37.31-21.59-19.34-59.29-6-84.73-1.35-29.25,5.4-58.26,12.05-87.12,19.23-29,7.23-57.94,15-86.87,22.66-28.44,7.53-58.86,19.29-88.42,20.38-33.86,1.25-34,54,0,52.77Z" transform="translate(-3162.18 8523.54)"/><path d="M3802.19-3191.92c27.12-8,53.88-17.22,80.07-27.89,24.42-10,48.2-21,67.83-39,19.84-18.26,30.27-42.78,39.32-67.59,9.91-27.18,19.54-54.5,26.9-82.49,8.65-32.88-42.24-46.9-50.89-14-6.6,25.1-15.06,49.61-23.84,74-7,19.53-13.51,38.64-28.81,52.78-12.83,11.87-33.46,21.06-49.52,27.46q-36.91,14.71-75.09,25.89c-13.67,4-22.25,18.54-18.43,32.45,3.74,13.59,18.74,22.48,32.46,18.43Z" transform="translate(-3162.18 8523.54)"/><path d="M3927.83-3425.5c10.56,92.88-85.82,139.9-157.31,169.93-84.2,35.36-161.62,77.75-232.51,135.78-26.29,21.53,11.23,58.67,37.31,37.32A768.11,768.11,0,0,1,3691-3160.54c43.12-23.77,88.81-41.12,133.58-61.33,80.63-36.41,167.33-104.36,156-203.63-1.6-14.16-11-26.39-26.38-26.39-13,0-28,12.13-26.39,26.39Z" transform="translate(-3162.18 8523.54)"/><path d="M4445.57-3024.08c-8.62,31-10.36,63.06-13.76,94.9-3.36,31.38-9.92,62.38-18.11,92.84-16.93,63-41.36,123.66-65.74,184.08-5.33,13.22,5.81,29,18.43,32.46,15.07,4.14,27.1-5.16,32.46-18.43,24.37-60.42,48.8-121.06,65.74-184.08a693.23,693.23,0,0,0,18.6-94.82c3.86-31.17,4.8-62.49,13.27-92.92,9.12-32.77-41.78-46.75-50.89-14Z" transform="translate(-3162.18 8523.54)"/><path d="M5891.59-4741.26c-4.61-118.37-17.67-377.52-172.17-635.2-89.11-148.64-171.94-207.83-215.16-234.4-85.53-52.6-164.18-68.8-189.4-73.4-21.78-4-107.71-18.25-216.54,4.45-65.89,13.75-163.11,45.83-301.4,156.9-189.82,152.47-300.44,328-353.9,425.23-52,94.65-180.13,352-185.15,701.49a1483.77,1483.77,0,0,0,17.73,250.9c11.78,99.13,46.53,281.28,164.12,428.38,45.48,56.9,84.78,88,96.63,94.31,120.2,64.41,248.31,107.55,408.28,103.08,93.74-7.59,232.53-31.38,381.11-106.52,147.51-74.6,237-165.57,258.34-187.86,102.77-107.19,152.12-212.71,191.67-299.2a1321.79,1321.79,0,0,0,86.58-255.56C5892.74-4524.19,5895-4653.4,5891.59-4741.26ZM5215.05-4328c-52.62,45-119.73,66.52-190.39,41.14-69.47-24.95-95.12-88.47-116.22-150.09-10.82-31.61-6.15-68.37-8.48-102.8,6.55-200.14,78.2-372.49,238-498.79,120.29-95.09,248.13-44.51,289.8,102.68C5499-4684.32,5403.67-4489.33,5215.05-4328Z" transform="translate(-3162.18 8523.54)"/><path d="M5350.34-3087c57.67-9.22,130.5-10.68,200.17-10.85q522.18-1.3,1044.13-4.15c221.69-.85,446.87-1.17,669.66-4.63,64.22-1,135.27-.26,194.85,3.39,76.78,4.7,148.33,16,134.05,29.48-17,16.05-113.46,6.34-167.55,5.79-616.76-6.33-1234.12-4.07-1851.24-5.06C5493-3073.16,5398.11-3069.23,5350.34-3087Z" transform="translate(-3162.18 8523.54)"/><path d="M7533.35-3058c-21.1,0-43.65-1-64.34-1.88-16-.7-31.2-1.38-44-1.5-447.31-4.6-902.61-4.67-1342.92-4.74q-253.89,0-507.78-.32c-12.63,0-25.52.06-38.54.13-75.76.46-154,.94-200.4-16.33l-17.51-6.51,23.76-3.8c61.4-9.81,136.6-11.33,208.74-11.51q331.36-.83,662.74-2.53,190.73-.84,381.29-1.62l96.56-.34c187.92-.65,382.23-1.33,572.4-4.28,73.29-1.14,144.05.1,199.44,3.49,27.12,1.66,117.68,8.27,144.64,23.6,8.18,4.65,9.78,9.68,4.63,14.55C7600.67-3060.8,7569.08-3058,7533.35-3058Zm-1963-21.63h4.17q253.78.4,507.61.32c440.6.07,896.21.14,1344.15,4.73,13.94.15,30.57.86,48,1.62,39.12,1.71,92.67,4,100.07-3,1-.89,1.43-1.94-1.46-3.58-11.68-6.64-59.94-13.73-117.35-17.25-52.46-3.21-120-4.4-190.27-3.28-190.89,3-385.57,3.64-573.86,4.29l-96.5.34q-190.52.73-381.23,1.63-331.41,1.47-663,2.52c-55.13.14-111.9,1.07-160.44,6.14,37.29,6.29,91.68,5.95,144.82,5.64C5547-3079.55,5558.78-3079.62,5570.34-3079.62Z" transform="translate(-3162.18 8523.54)"/><path d="M3917.56-2979.22c94.07-1.83,187.49,1.47,280.93,4.93,24.85.93,55.9,4.29,51.48,13.24-4.84,9.79-21.68,22.84-64.52,18.75-101.85-9.73-205.1-5.42-308.22-4.78-52.25.33-104.75-2.56-156.95-4.65-18.87-.76-48.23,2.86-47.12-10.5,1-11.74,19.83-17,50.15-17Q3820.44-2979.18,3917.56-2979.22Z" transform="translate(-3162.18 8523.54)"/><path d="M4200.77-2936.82c-4.91,0-10.24-.25-16-.8-80.32-7.68-163.12-6.55-243.23-5.46-21.4.29-42.82.58-64.23.71-42.22.3-85.07-1.58-126.54-3.36L3720-2947c-3.77-.15-7.94-.11-12.19-.09-14.38.1-29.28.19-36.52-5.93a10.89,10.89,0,0,1-4-9.49c1.18-14.2,20-21.4,55.93-21.4h.13l138.74,0h55.43c97.33-1.89,195,1.74,281.27,4.94,47.85,1.77,53.78,9.09,55.74,11.5a7.28,7.28,0,0,1,1,8.17C4252.66-2953.64,4240.91-2936.82,4200.77-2936.82Zm-173.06-16.46c52.83,0,106.07,1.3,158.44,6.3,44.73,4.26,56-11,58.32-15.8-1-1.16-11.53-5.51-46.25-6.8-86.05-3.19-183.59-6.83-280.52-4.93H3723.2c-16.15,0-43.25,1.64-44.15,12.59a2.47,2.47,0,0,0,.82,2.4c3.7,3.13,17.64,3,27.83,3,4.5-.05,8.91-.07,12.88.1l30.79,1.3c41.29,1.77,84,3.62,125.81,3.35,21.38-.13,42.76-.42,64.13-.71C3969.83-2952.89,3998.72-2953.28,4027.71-2953.28Z" transform="translate(-3162.18 8523.54)"/></g></g></svg>