<svg xmlns="http://www.w3.org/2000/svg" viewBox="0 0 5952.47 6178.14"><defs><style>.cls-1{fill:#13c0fa;}.cls-2{fill:#fbb406;}</style></defs><g id="Layer_2" data-name="Layer 2"><g id="Layer_1-2" data-name="Layer 1"><path class="cls-1" d="M5535.55,2294.11a23.31,23.31,0,0,1-3-5.39c-32.26-81.61-138.47-153.26-138.47-153.26-34.64-23.44,12.24,4-215.28-197.52-67.36-59.66-124.73-129.6-191.18-190.25-30.93-28.22-65-61.43-61.95-95.49,2-22.44,27.43-42.79,78-83.28,3.22-2.58,7.14-4.38,10.06-7.22,133.88-130,263.83-264,408.82-382.75,44.73-36.63,67.08-92,94.06-142.26,17.12-31.86-1.68-64.16-4.88-76.35-19.14-73-65.51-82.7-160.25-191.42-38.71-44.42-58.13-74-108.16-115.4-47.83-39.6-71.4-46.81-91.59-46.08-38.56,1.39-61.24,34.72-90.56,59.75-111.56,95.23-225.95,187.25-339.41,280.3-12,9.83-21.1,32.19-39.46,23.21a25.94,25.94,0,0,1-8.26-6.62c-15.68-19.3-18.59-41.81-18.59-41.81-26.83-207.69-4-309.77-4-309.77,9-40.27,13.89-48.19,7.22-60-24.52-43.2-128.46-3.27-332.56-13.57-35.52-1.8-71.15-1.43-106.59-4.28-85-6.83-124.25-18.25-152.42,5.25-19.25,16.06-23.63,40.32-25.64,54.4-22.29,156.56-20.32,949.77-26.59,1176.59-10.68,385.9-16,578.85-18.07,588.26-13.17,60.38-8.83,89.26-.15,147,8.14,54.18,21.86,83.47,45.5,101,15.36,11.4,34.36,18.79,56.63,20.93,134.07,12.84,267.71,48.85,404.1,7,67.69-20.78,104.58-50.08,112.11-117.41,8.44-75.49,14.15-151.27,22-226.82,1-9.22,5.76-21.77,12.85-25.76,10.7-6,17.37,7,23.14,14.16,80.14,100.07,162.12,197.77,256.08,286.69,41.92,39.67,83.07,79.09,130.72,110.93,76.4,51.06,132.55,43.52,202.95-15.75,51.26-43.15,103-84.21,149.15-134.1,47.17-51,112.51-86,123.7-161.37Z" transform="translate(-2898.97 -162.21)"/><path class="cls-1" d="M8236.15,2107.23c2.27-210.69-1.6-304.77-1.86-467.54-.15-97.62,1.24-67.65,3.14-349.75.82-122,.65-140.84,1.57-232.65.94-94.26,1.66-129,1.56-191-.14-86.92-1.78-157.53-3.13-203.38a268.13,268.13,0,0,0-72.6-55.46c-73.06-37.82-128.28-21.72-251.76-16.44-197.4,8.45-268-23.64-313.38,29.79-21.22,25-26,55.85-26.74,77.91v519.23c2.9,25.89,3.05,52.12,3.95,78.26.7,20.38,11.85,49.48-16.62,57.91a41.64,41.64,0,0,1-21.16,0c-64.05-16.9-146.27-240.26-146.27-240.26-87.33-237.22-111.86-273.19-133-299.6-28.37-35.52-78.36-89.08-161.85-129.07-68-32.55-140.66-13-210.86-20.14-69.37-7.06-148.55,43.28-179.18,107.83V2143.37c-1.63,62.19-3.61,153.36-4.6,265.91-.86,98.42-.47,157.55,41.66,194.17,8.86,7.71,22.7,17.13,82.36,31.54,90.22,21.8,163.28,25.54,199.55,27,148.6,5.88,223.37,8.07,246-28.5,5.38-8.69,5.75-31.08,6.27-75.5,1-87.14,1.53-130.72,1.42-134-4.94-156.18-11-346.88,13.46-350.53,2.85-.42,7.28,1.5,14,12.76,30,26.75,32.63,66.7,54.14,94,87.7,111.12,154,236.53,243.9,346.38,28.63,35,57.09,64.14,96.79,85.73,131.87,71.73,333.84,62.26,433.7-48.34,44.3-49.07,55.81-106.07,78.82-220.09C8234,2252.26,8235.34,2182.29,8236.15,2107.23Z" transform="translate(-2898.97 -162.21)"/><path class="cls-1" d="M6334.09,1027.83c9.9-2.79,39.84-2.58,99.72-3.15,10.54-.1,26.77-3.27,48.73-2.83,51.81,1,78.94-17.3,83.28-74.32,4.78-62.85,3.14-126,10.29-189.07,4.13-36.43.76-80.44-66.57-95.34-121.3-26.84-243.49-22-364.76-30.94-138.59-10.17-278.65.76-418-1.88-100.4-1.89-134.91,29.87-128.73,130,2.74,44.42,6.75,88.11,2.24,133.55-9.57,96.37,21.91,126.44,118,127.74,31.24.43,62.48.79,93.72.66,12.37-.06,21.41,2.74,27.55,8.42,10.19,9.42,10.37,24.3,10.44,29.19.59,43.68,9.34,475.81,10.79,527.28,0,0,10.5,371.22-.55,476-1.06,10-3.89,31.18-20,43.5-13.64,10.4-29.58,10.19-41.36,10.41-40.89.77-95,10.75-121.86,29.85-18,12.8-25.82,31.14-39,87.21-31,132.42-46.56,198.64-25.58,271,8.14,28.07,20.69,71.34,54.36,107.13,68,72.33,161.91,50,421,45.17,285.84-5.29,409.22,17.52,476.46-67.22,26.13-32.94,38.5-75.47,39.44-78.78,15.1-53.41,1.36-79.45-22.39-208-20.25-109.61-19.49-140.66-51.16-163.85-22.36-16.38-49.9-20.78-82.7-26-61.61-9.85-93.22,3.92-116.62-18.09-16.77-15.77-18.1-39.36-18.6-51.43-11.93-286.81-17.9-430.21-12.89-511.54C6315.8,1266.64,6273,1045,6334.09,1027.83Z" transform="translate(-2898.97 -162.21)"/><path class="cls-2" d="M5965.38,2812.66c66.31,45.17,59.33,112.58,106.74,354.17,29.75,151.58,85,433.16,129.94,431.69,24.66-.81,36.72-86.55,108-417.89,53.44-248.41,73.93-327,145.55-366.71,20.85-11.55,90-11.9,228.18-12.6,174.27-.89,234,8.38,263.05,50.41,14.69,21.28,19.88,48.6,23.32,66.7,10.45,55-.62,99.63-5.09,116.85-75.81,292.45-123.27,401.24-123.27,401.24-12,27.49-54.32,177.36-139,477.1-50.81,179.87-108.86,357.78-155.29,538.82-62.2,242.46-78.66,350.74-180.65,412.78-82.56,50.22-184.88,48-221.84,47.26-34.69-.73-146.28-3.1-231.36-63-86.24-60.74-105.48-152.65-152.18-399.95-49.16-260.32-85.26-462.63-104.28-565.73-45.18-244.91-67.77-367.37-87.92-452.27-29.77-125.41-31.78-256.7-66.11-381,0,0-16.37-59.26-5-158.23,1.34-11.66,3.62-27.54,14.68-42.61,25.32-34.5,76-36.66,99.19-37.67C5922.12,2798.59,5934.75,2791.79,5965.38,2812.66Z" transform="translate(-2898.97 -162.21)"/><path class="cls-2" d="M8341.29,3752.91c-4.38-112.37-16.78-358.39-163.45-603-84.6-141.11-163.23-197.3-204.26-222.52-81.21-49.94-155.87-65.32-179.81-69.69-20.68-3.77-102.25-17.32-205.58,4.23-62.55,13-154.85,43.51-286.13,149-180.21,144.74-285.22,311.36-336,403.68-49.41,89.86-171,334.14-175.78,666a1409.44,1409.44,0,0,0,16.83,238.18c11.19,94.12,44.18,267,155.82,406.69,43.17,54,80.48,83.51,91.72,89.53,114.12,61.15,235.74,102.1,387.61,97.86,89-7.2,220.75-29.79,361.81-101.12,140-70.82,225-157.19,245.25-178.34,97.57-101.77,144.42-202,182-284.05a1254.11,1254.11,0,0,0,82.19-242.62C8342.38,3959,8344.54,3836.33,8341.29,3752.91ZM7699,4145.21c-49.95,42.72-113.66,63.15-180.75,39.06-65.94-23.68-90.3-84-110.32-142.49-10.28-30-5.84-64.9-8-97.6,6.21-190,74.23-353.61,225.91-473.52,114.19-90.27,235.56-42.25,275.12,97.48C7968.54,3807,7878.08,3992.08,7699,4145.21Z" transform="translate(-2898.97 -162.21)"/><path class="cls-2" d="M5490.15,3752.91c-4.39-112.37-16.78-358.39-163.45-603-84.6-141.11-163.23-197.3-204.27-222.52-81.2-49.94-155.87-65.32-179.8-69.69-20.68-3.77-102.26-17.32-205.58,4.23-62.55,13-154.85,43.51-286.13,149-180.21,144.74-285.22,311.36-336,403.68-49.4,89.86-171,334.14-175.77,666A1408.39,1408.39,0,0,0,3956,4318.69c11.18,94.12,44.18,267,155.81,406.69,43.18,54,80.49,83.51,91.73,89.53,114.12,61.15,235.74,102.1,387.61,97.86,89-7.2,220.75-29.79,361.81-101.12,140-70.82,225-157.19,245.25-178.34,97.57-101.77,144.42-202,182-284.05a1254.11,1254.11,0,0,0,82.19-242.62C5491.23,3959,5493.4,3836.33,5490.15,3752.91Zm-642.28,392.3c-50,42.72-113.66,63.15-180.75,39.06-65.95-23.68-90.3-84-110.33-142.49-10.27-30-5.84-64.9-8.05-97.6,6.22-190,74.23-353.61,225.91-473.52,114.2-90.27,235.56-42.25,275.13,97.48C5117.4,3807,5026.94,3992.08,4847.87,4145.21Z" transform="translate(-2898.97 -162.21)"/><path class="cls-1" d="M8763.38,5288.79c-2.53-25.69-6.06-70,19.5-104.81,9-12.22,11.19-18.15,24.82-28.93,22-17.4,27.5-57,23.06-88.05-19.18-134.08-16.81-269.3-18.21-403.76-2.66-257.53-26.15-514-29.18-771.64-3-254.58-7.39-509.46-16.51-764.16-12.58-351.39-15.86-402.63-20-570.2-18.21-730.65-93.58-1461.35-65.11-2191.67.66-16.94,3.78-74.46-31.44-102.52-22.64-18-51.55-16.3-63.61-15.67-69.73,3.66-192.63,2.69-358.28-.07-17.38-.29-209.58-1-594.49-8.86-364.24-7.47-347-8.81-596-13.77-349.15-7-395.1-5.68-776.66-12.31-428.56-7.45-642.84-11.18-906.59-20.63-216.62-7.76-546.1-19.94-952.41-19.14-15.13,0-25.88.24-46.92.33-319.68,1.38-561.05-1.85-761.12-9.44-58.62-2.23-159.4-6.56-277.41,37.26-41.85,15.54-186.52,71.51-286.21,218.44-56.45,83.21-71.61,156-97.79,281.67-6.71,32.23-28,139.65-33.37,415.14-1.56,80.43,1,194.11,4,421.51,1.19,91.29,2.75,188.66,5.07,312.81,2.72,145.37,1.7,180.29,2.83,490.28,1,284,5.5,907.9,10.83,1376.27,2.35,206,6,500.65,11.73,859.12,8.82,441.32,39.8,779.89,70.35,949.71,12.38,68.87,38.43,186.32,127.72,257.77,40,32,87.88,50.69,92.47,52.63,49.18,20.82,108.65,23.72,163.46,23.69,174.38-.06,348.9,9.85,523.21-3.37,10.3-.78,24.65-4.21,30.37,2.43,4.7,5.44,1.85,14.66.79,18.27-20.3,69.19-32.14,141-56.94,208.7-25.3,69.06-31.33,91.69-20.42,115.54,8.5,18.59,25.35,37.29,46.59,41.8,24.11,5.11,50.18,2.8,73.22-9.38,98.22-52,204-88.71,298.47-148.19,33.16-20.86,67.61-40.52,100.43-60.93,30.61-19,38.26-9.59,50.2,11.84,41.81,75.07,89.8,146.77,121.94,227.13a253.53,253.53,0,0,0,33.41,59.51c16,20.94,41.7,19.32,63.54,13.06a50.65,50.65,0,0,0,11.71-7.05c10.11-8.4,119.44-112.46,193-463.58,2.89-13.78,10.62-51.34,37.17-62.35a44.82,44.82,0,0,1,22-2.82l2634.9,12.81c576.41-30.08,891.41-24.47,1066.43-3.2,46.37,5.64,196.73,26.21,228.63-35.17,11.86-22.8.84-44.38-17.58-97.53C8828.94,5677.31,8790.82,5567.37,8763.38,5288.79Zm-5582.11,94.33c-24.42,53.45-26.61,109.81-28.84,167.24a768.2,768.2,0,0,0,3.73,111.25c-59.71-117.25-81.77-215.59-90.92-283-10.17-74.9-11-172.11-12.74-366.52-.25-28.88-.31-50.26-.31-51-.66-106.28-2.39-378.67-5.64-819.38-2.7-367-5-676.8-14.75-1079.74-8.39-345.64-14.16-384.92-19-702.2-2.6-169.39-3.85-373.38-4.53-774.47C3007.38,1083.61,3010,645.59,3174,468c44.09-47.74,125.55-104.51,200.46-143.41,0,0,79.9-56.3,190.47-41.77,29.36,3.85,46.57,6.68,43.59,41.65-2.46,28.9.91,58.25.92,87.4q.13,696.54.18,1393.08.48,465.14,3,930.26c1.19,243.13,4.66,486.24,4.9,729.37.17,182.17-4.83,364.35-4.41,546.52.3,126.83,6.86,253.63,8.71,380.47,1.33,91.52-1.76,86.3-2.83,198.42-3.85,401.62,17.28,434.75-25.95,490.94-55.73,72.44-105.8,36.83-300.35,180.65C3241.56,5299.34,3204.88,5331.47,3181.27,5383.12Zm755.47,366.69c-96.71,20-194.71,14-292.37,14.84-14.59.12-29.17,0-43.76,0-70.84,0-141.77-2.06-212.49.88-13.16.55-23.48-1.79-31.93-6.32-5.29-2.83-24.53-13.26-29.86-35-1.5-6.09-3.82-15.55.17-23.5,9.47-18.83,47.5-15.4,116.19-15.06,26.88.14,53.76-1.71,80.63-1.09,30.26.71,343.61-.14,410.62,0,18.93,0,39.87-1.25,41.74,25.46S3958.92,5745.21,3936.74,5749.81Zm846.46-266a1762.63,1762.63,0,0,1-174.38,713.6q-64.56-115.36-128.42-237-31.93-60.93-62.42-121.1c-20.86,17.89-50.44,42.61-86.82,70.92-50.5,39.29-114.53,88.77-202,140.12a1518,1518,0,0,1-158.81,81q21.84-72.48,43.7-145c45.3-135.14,87.54-279,124.71-431.47q16.26-66.71,30.38-131.86l324.8,16.57,276.16-.52Zm44-136c-71-4-143.45-5.51-214.12-7.9-159.46-5.4-319.16,3.84-478.29-8.49-20.34-1.58-41.76,3.71-60.34,13.68-3.39,40.19-10.12,80-12.06,120.31-2.7,56.34-5.78,72.18-16.83,88.5-30.18,44.57-104.76,43.1-136,42.62-339.28-5.25-599.13,28.29-639.54-65.55-8.32-19.34-11.19-42.37-11.19-42.38-7.75-62.28,23.08-112.35,31.26-124.7a140,140,0,0,1,11.18-15c39.73-45.87,96.22-64.84,142.23-78.73,91.82-27.72,137.73-41.58,192.66-53.35,58-12.43,106.64-20.49,140.69-25.58l4515.68-19.74q59.88.46,121.25,1.89,48.22,1.11,95.5,2.8c-38.89,99.16-21.48,197.84-24.65,295.07-.07,2.07.66,4.23.3,6.22-5.14,28.87,50.89,55.51,10.61,80.18-23.13,14.17-60.83,4.6-92,5.67-175.42,6-351.16,21.37-526.16,15.28-177.57-6.19-353.62-1-529.19,20.36-116.09,14.11-228.53-18-344.25-15.24-179.56,4.34-359.56-5.66-539.44-7.93-191-2.41-381.44,15.86-572.9,2.69-147.07-10.11-295.65-4.49-443.26,1.43-172.86,6.93-345.57-.76-518.29,3.32-28.1.66-35.92-11.33-39.24-35.53-5.41-39.38-10.33-79-2-118C4900.12,5377,4866.64,5350.07,4827.22,5347.85Zm3864.71,372.08a19.47,19.47,0,0,1-5,9.44c-3.71,6-10,10.31-19.26,10.31L5179,5742.86c-128.79.53-224.77.4-266.72,1.25-6.33.12-22,.49-32.78-9.76-14.57-13.88-11.19-38.74-7.47-66.1,4.57-33.66,15-40.9,18.68-43a30.12,30.12,0,0,1,13.29-3.89H8480.94c19.17-2.71,38.13-6.27,56.1-14.9,6.46-3.1,13-6.1,19.5-9.14a256,256,0,0,0,28.81-23.64c1.13-2.21,2.25-4.42,3.29-6.67.13-.28.37-.74.63-1.22a46.38,46.38,0,0,0,1.74-4.35,34.31,34.31,0,0,1,2.17-4.52c3.2-13.52,4.28-26.82,2.33-38.23a911.46,911.46,0,0,1,2.16-320.07c3-16.36,2.42-35.22,26.39-34.64,30.66.74,23.88,24.74,22.05,41.34-14.48,131.11,4.36,258.89,29,387.49,1.32,6.9,2.26,13.11,3,19a26.42,26.42,0,0,1,1.26,13.19c.16,2.6.21,5.05.2,7.42A45.87,45.87,0,0,1,8681,5637a137.58,137.58,0,0,1,2,15.1c.09.86.16,1.78.24,2.66q1.39,4.34,2.82,8.65C8692.17,5682,8695.86,5700.41,8691.93,5719.93Zm-92.43-648.05c-110.1,4.65-280,10.63-488.18,12.79-313.38,3.25-368.83-5.74-806.88-8.53-217.5-1.38-454.94-2.89-764.25,3.2-138.33,2.73-211.48,5.41-367.74,6.4-179.63,1.13-219.83-1.54-474.32-1.07-141.4.26-255.69,1.32-341.09,2.13-133.13,1.26-157.23,2-345.35,4.27-238.72,2.88-375.63,3.84-445.55,4.26-10.25.06-187.57,1-422.09-4.26-273.33-6.13-374.68-15.06-417.84-85.28-10.22-16.63-14.05-31.62-19.18-140.7-6.7-142.49-10.05-213.73-6.4-285.66,15.71-309.07,3.64-619.1,18-928.24,21.36-459.41,8-413-6.4-1980.33-2.55-276.14-.43-552.32-.43-828.49,0-170.22,1.11-340.46-.84-510.67-.21-19.06,1.84-30.91,8.85-37.82,12.77-12.58,35.16-8.7,39.62-8.09,40.09,5.46,617.1,17.07,1432.49,31.33,1159.63,16,1691.85,22.62,1951.63,25.43q335.91,3.65,671.79,8.51c109.37,1.56,219.84-1.1,327.75,5.07,121.14,6.92,242.34,13.45,363.77,15.7,37.26.68,35.75,24.57,34.25,51.67-10.69,193.14,19,384.81,21.86,577.69,2.42,161,9.35,322.34,15.9,483.22,8.58,210.6,5.67,421.59,20.35,632,3.25,46.47,1.83,94,1.77,140.92-.15,121.17,16.92,241.05,20.88,361.69,6.92,210.86,10.78,421.81,15.63,632.74,4.88,212,10,424.06,13.95,636.11,4.59,243.81,31.46,486.53,29.13,730.94-1,106.9,5.85,214.83,9.58,322.27.58,16.69,5.6,57.6-19.39,90.29C8650,5058.61,8618.19,5068.11,8599.5,5071.88Z" transform="translate(-2898.97 -162.21)"/><path class="cls-1" d="M7710.16,5466c-173.66,1.35-348.07,12.13-521.6.84-16.06-1-33.11,2.24-49.52,4.05-25,2.76-57.67,3.4-59.74-12.46-1.92-14.78,32.49-20.16,56.21-19.18,192.22,7.89,382.69-13.18,576.59-5.55,161.58,6.36,327-2.95,490.89-2.65,14.51,0,29.09-.21,43.51.49,24.83,1.2,54.21,3.75,54.58,21.14.53,24.47-35.44,12.76-54.77,12.85C8067.6,5466.35,7888.88,5466,7710.16,5466Z" transform="translate(-2898.97 -162.21)"/><path class="cls-1" d="M7114.29,5478.71c-15.81,0-27-2.35-34.05-7.09-4.69-3.17-7.51-7.48-8.16-12.47s1.22-9.55,5.41-13.39c12.45-11.44,42.44-13.39,58.37-12.75,96.13,3.94,193.72.55,288.08-2.71,94.18-3.27,191.56-6.65,288.49-2.84,99.83,3.93,203.1,1.82,303-.21,61.55-1.25,125.34-2.58,187.62-2.44h9.52c11.27,0,22.91-.05,34.38.5,21.29,1,60.92,3,61.45,27.29.15,7.17-2.28,12.73-7.24,16.53-9.7,7.43-25.81,5.56-40,3.92-5.5-.64-10.13-1-14.76-1.23-138.35.63-279.05.55-415,.51l-121.09,0c-51.88.41-104.74,1.67-155.86,2.9-120.12,2.88-244.35,5.87-366.33-2.07-11.26-.73-23.62.89-35.57,2.46-4.19.55-8.36,1.09-12.48,1.55A237.11,237.11,0,0,1,7114.29,5478.71Zm15.43-33.3c-18.29,0-35.91,3.67-41.62,8.92-1.58,1.45-1.68,2.54-1.56,3.42a5.44,5.44,0,0,0,2.69,4c3.18,2.15,14.29,6.72,48.89,2.92,4-.44,8.06-1,12.13-1.5,12.76-1.68,26-3.4,38.86-2.57,121.24,7.88,245.08,4.91,364.84,2,51.19-1.23,104.13-2.5,156.15-2.9l121.21,0c136,0,276.65.11,415-.51,4.64-.17,10.75.63,16.78,1.33,10.54,1.23,23.7,2.75,28.38-.85.62-.47,2.48-1.9,2.38-7-.24-11.17-23.08-13.82-47.72-15-11-.53-22.49-.48-33.52-.48H8203c-62.22-.15-125.79,1.19-187.24,2.44-100.11,2-203.62,4.16-304,.21-96.28-3.78-193.36-.43-287.24,2.83-94.67,3.29-192.59,6.69-289.36,2.71C7133.35,5445.45,7131.53,5445.41,7129.72,5445.41Z" transform="translate(-2898.97 -162.21)"/><path class="cls-1" d="M3754.44,5304.65c64.2-1.33,128,1.07,191.73,3.58,17,.67,38.15,3.12,35.13,9.62-3.3,7.12-14.79,16.6-44,13.62-69.51-7.07-140-3.93-210.35-3.47-35.66.24-71.48-1.86-107.11-3.38-12.88-.55-32.91,2.08-32.16-7.63.66-8.53,13.54-12.36,34.23-12.35Q3688.17,5304.67,3754.44,5304.65Z" transform="translate(-2898.97 -162.21)"/><path class="cls-1" d="M3947.72,5335.46a108.82,108.82,0,0,1-10.93-.59c-54.82-5.57-111.33-4.76-166-4-14.61.21-29.22.42-43.84.52-28.81.21-58-1.15-86.35-2.45l-21-.94c-2.57-.11-5.42-.08-8.32-.07-9.81.07-20,.14-24.92-4.31a8.13,8.13,0,0,1-2.74-6.89c.8-10.32,13.65-15.55,38.17-15.55h132.6c66.42-1.38,133.11,1.26,192,3.58,32.65,1.29,36.7,6.61,38,8.36a5.56,5.56,0,0,1,.66,5.94C3983.14,5323.23,3975.12,5335.45,3947.72,5335.46Zm-118.1-12c36.05,0,72.38.95,108.13,4.58,30.52,3.1,38.19-8,39.8-11.47-.69-.85-7.87-4-31.57-5-58.72-2.32-125.29-5-191.44-3.58H3621.8c-11,0-29.51,1.19-30.13,9.15a1.86,1.86,0,0,0,.56,1.74c2.53,2.28,12,2.19,19,2.17,3.07,0,6.09-.05,8.8.07l21,.94c28.18,1.29,57.3,2.64,85.86,2.44,14.59-.1,29.18-.31,43.76-.52C3790.12,5323.78,3809.83,5323.49,3829.62,5323.49Z" transform="translate(-2898.97 -162.21)"/><path class="cls-1" d="M7256.52,5316.61c29.86-13.83,67.57-16,103.65-16.29,180.25-1.3,360.6-4.24,540.66-6.22,114.79-1.27,231.39-1.75,346.75-7,33.26-1.5,70-.39,100.9,5.08,39.76,7.06,76.81,24,69.41,44.25-8.79,24.07-58.75,9.51-86.76,8.68-319.36-9.5-639-6.11-958.59-7.59C7330.4,5337.38,7281.25,5343.27,7256.52,5316.61Z" transform="translate(-2898.97 -162.21)"/><path class="cls-1" d="M5072.84,5460.92c46.76-8.75,105.81-10.14,162.3-10.3,282.24-.83,564.62-2.68,846.55-3.94,179.73-.8,362.3-1.11,542.94-4.4,52.07-.94,109.67-.24,158,3.22,62.25,4.46,120.26,15.18,108.68,28-13.77,15.24-92,6-135.84,5.5-500.05-6-1000.6-3.87-1500.94-4.8C5188.53,5474.06,5111.57,5477.79,5072.84,5460.92Z" transform="translate(-2898.97 -162.21)"/><path class="cls-1" d="M6842.77,5488.46c-17.11,0-35.39-.93-52.17-1.79-13-.66-25.29-1.3-35.66-1.42-362.67-4.36-731.82-4.43-1088.81-4.5q-205.85,0-411.69-.3c-10.24,0-20.69.05-31.25.13-61.43.43-124.87.88-162.48-15.51l-14.19-6.18,19.26-3.61c49.78-9.31,110.75-10.75,169.24-10.93q268.66-.78,537.33-2.39,154.63-.81,309.14-1.54l78.29-.33c152.36-.62,309.9-1.26,464.08-4.06,59.42-1.09,116.8.09,161.71,3.31,22,1.58,95.41,7.85,117.27,22.41,6.63,4.41,7.93,9.19,3.75,13.81C6897.34,5485.79,6871.73,5488.46,6842.77,5488.46Zm-1591.56-20.54h3.38q205.76.39,411.55.31c357.23.07,726.63.13,1089.81,4.49,11.3.14,24.79.82,38.89,1.54,31.72,1.62,75.14,3.84,81.14-2.83.77-.85,1.15-1.84-1.19-3.4-9.47-6.3-48.59-13-95.14-16.37-42.53-3.06-97.32-4.19-154.27-3.12-154.76,2.82-312.6,3.45-465.27,4.07l-78.24.33q-154.46.69-309.09,1.54-268.7,1.41-537.51,2.4c-44.7.13-90.73,1-130.08,5.83,30.23,6,74.33,5.65,117.42,5.35C5232.25,5468,5241.84,5467.92,5251.21,5467.92Z" transform="translate(-2898.97 -162.21)"/><path class="cls-1" d="M4872.06,5616H8456.67c32.24,0,32.29-50.1,0-50.1H4872.06c-32.24,0-32.29,50.1,0,50.1Z" transform="translate(-2898.97 -162.21)"/><path class="cls-1" d="M5997.64,5807.88h2778.8c32.24,0,32.29-50.1,0-50.1H5997.64c-32.23,0-32.28,50.1,0,50.1Z" transform="translate(-2898.97 -162.21)"/><path class="cls-1" d="M4843.28,5811.61H7805.65q372.29,0,744.56-.38c7.25,0,14.48.08,21.72.31,32.64,1,65.16-1.62,97.79-1.3,31.86.31,60.88,3.12,92.71-.95,24.9-3.19,60.63-5.19,68.62-34.93,6.32-23.5-2.21-59.47-14-79.93-4.27-7.41.88,4.72-1.34-2.29-1.52-4.82-3.22-9.57-4.68-14.41-5.55-18.32-10.3-36.9-15-55.45-8-31.41-15.62-62.93-23.14-94.46-7.47-31.35-55.79-18.07-48.31,13.32,11.85,49.7,23.15,99.79,37.82,148.76,2.81,9.34,5.81,18.58,10,27.41,4,8.33,6.64,15.66,7.93,25,.49,3.57-.18,15.54,1.81,18,.7.86.67,3.75,3.14-2.57,2.26-5.79-.18-2.25-7-.86a287.31,287.31,0,0,1-81.8,4.43c-39.63-3.32-79.33,1.53-119,.33-7.72-.23-15.41-.49-23.13-.51-231.28-.56-462.59.38-693.87.38H4843.28c-32.24,0-32.29,50.1,0,50.1Z" transform="translate(-2898.97 -162.21)"/><path class="cls-1" d="M8490.38,5390.32c-.52,34.72-1.77,70.69-10.84,104.44a85.52,85.52,0,0,1-4.65,13.54c-1.86,4.05-6.2,15.13-10.47,17.41.86-.46,6.18-6.91,1.9-2.62-2.53,2.54-4.81,5.32-7.41,7.81a57.55,57.55,0,0,1-10.9,8.48c-.69.4-6.3,2.83-2.37,1.19,4.09-1.71-2.84,1-3.54,1.21-4.73,1.64-9.56,3-14.4,4.32-13.93,3.71-28.13,6.44-42.34,8.79-38.78,6.39-78.12,9.33-117.35,11-32.12,1.4-32.29,51.5,0,50.1,44.83-2,89.69-5.83,133.95-13.38,24.13-4.11,52.14-8.32,73.51-21.22,63.05-38.06,64-126.47,65-191.1.48-32.25-49.61-32.27-50.1,0Z" transform="translate(-2898.97 -162.21)"/><path class="cls-1" d="M3739,5143.83H8616.56c32.23,0,32.29-50.1,0-50.1H3739c-32.24,0-32.29,50.1,0,50.1Z" transform="translate(-2898.97 -162.21)"/><path class="cls-1" d="M3875.39,5156a4222.29,4222.29,0,0,1,656.53-2.17c32.16,2.4,32-47.71,0-50.1a4222.3,4222.3,0,0,0-656.53,2.18c-31.91,2.59-32.19,52.71,0,50.09Z" transform="translate(-2898.97 -162.21)"/><path class="cls-1" d="M4235.29,5106.58a617.51,617.51,0,0,1-159.15,8.94v50.1c56-3.28,112.42-1.53,167.94,6.44,13.38,1.92,26.91-3.29,30.81-17.49,3.24-11.76-4-28.88-17.49-30.82-60.12-8.62-120.59-11.78-181.26-8.23-13.51.8-25,10.95-25,25,0,14.35,11.5,24.1,25,25.05a669.15,669.15,0,0,0,172.47-10.73c13.29-2.54,20.87-18.52,17.49-30.81-3.82-13.92-17.48-20-30.81-17.5Z" transform="translate(-2898.97 -162.21)"/><path class="cls-1" d="M3526.6,5233.45c25.11-.93,49.15-8.39,73.27-14.78,26.68-7.07,53.34-14.21,80.05-21.14,25.39-6.58,50.86-12.91,76.51-18.44,12.81-2.76,25.66-5.33,38.56-7.62,8.83-1.57,28-7.33,34.69-6l-11-6.45,2.1,1.89c23.95,21.46,59.5-13.85,35.43-35.42-20.49-18.36-56.29-5.74-80.44-1.28-27.77,5.13-55.31,11.44-82.71,18.26-27.57,6.86-55,14.23-82.46,21.5-27,7.16-55.89,18.32-84,19.36-32.14,1.18-32.3,51.29,0,50.09Z" transform="translate(-2898.97 -162.21)"/><path class="cls-1" d="M3506.57,5223.78a804.07,804.07,0,0,0,76-26.48c23.18-9.45,45.75-19.9,64.39-37.05,18.83-17.33,28.74-40.6,37.33-64.16,9.4-25.81,18.55-51.74,25.54-78.31,8.2-31.21-40.11-44.52-48.31-13.32-6.27,23.82-14.3,47.09-22.64,70.26-6.67,18.54-12.82,36.68-27.35,50.11-12.18,11.27-31.76,20-47,26.07q-35,14-71.29,24.57c-13,3.83-21.12,17.6-17.49,30.81,3.54,12.91,17.79,21.34,30.81,17.5Z" transform="translate(-2898.97 -162.21)"/><path class="cls-1" d="M3625.85,5002c10,88.19-81.48,132.82-149.35,161.33-79.93,33.57-153.43,73.82-220.73,128.91-25,20.43,10.66,55.69,35.42,35.42a730,730,0,0,1,109.8-74.11c40.94-22.57,84.32-39,126.82-58.23,76.55-34.56,158.85-99.07,148.14-193.32-1.53-13.44-10.42-25-25-25-12.35,0-26.59,11.52-25.05,25Z" transform="translate(-2898.97 -162.21)"/><path class="cls-1" d="M4117.37,5383.12c-8.19,29.42-9.84,59.87-13.07,90.09-3.19,29.8-9.42,59.22-17.19,88.14-16.08,59.83-39.27,117.4-62.41,174.75-5.07,12.55,5.51,27.53,17.49,30.82,14.31,3.93,25.73-4.9,30.82-17.5,23.14-57.36,46.33-114.93,62.41-174.75a659.34,659.34,0,0,0,17.66-90c3.66-29.59,4.56-59.33,12.6-88.21,8.65-31.11-39.67-44.39-48.31-13.32Z" transform="translate(-2898.97 -162.21)"/><path class="cls-1" d="M4976.31,5323.39c54.75-8.76,123.89-10.15,190-10.31q495.72-1.23,991.25-3.94c210.45-.8,424.23-1.1,635.74-4.39,61-.95,128.42-.25,185,3.21,72.9,4.47,140.83,15.18,127.26,28-16.12,15.23-107.71,6-159.06,5.49-585.51-6-1171.61-3.87-1757.47-4.8C5111.77,5336.53,5021.66,5340.25,4976.31,5323.39Z" transform="translate(-2898.97 -162.21)"/><path class="cls-1" d="M7048.75,5350.93c-20,0-41.44-.94-61.09-1.79-15.16-.66-29.61-1.31-41.75-1.43-424.66-4.36-856.9-4.43-1274.91-4.49q-241,0-482.06-.31c-12,0-24.22.06-36.58.13-71.93.43-146.21.89-190.25-15.5l-16.63-6.19,22.56-3.6c58.29-9.32,129.68-10.76,198.16-10.93q314.6-.8,629.18-2.4,181.06-.81,362-1.54l91.67-.32c178.4-.62,362.87-1.26,543.4-4.07,69.58-1.08,136.76.1,189.34,3.31,25.74,1.58,111.72,7.86,137.32,22.41,7.76,4.41,9.28,9.19,4.39,13.81C7112.65,5348.26,7082.67,5350.93,7048.75,5350.93Zm-1863.59-20.54h4q240.91.38,481.89.3c418.28.07,850.82.14,1276.07,4.5,13.24.14,29,.81,45.54,1.53,37.14,1.62,88,3.84,95-2.82.91-.85,1.36-1.85-1.39-3.4-11.08-6.31-56.89-13-111.4-16.38-49.8-3.05-113.95-4.18-180.63-3.12-181.22,2.82-366,3.46-544.79,4.07l-91.62.33q-180.87.69-361.92,1.54-314.61,1.41-629.38,2.4c-52.34.13-106.24,1-152.31,5.83,35.4,6,87,5.65,137.48,5.35C5163,5330.45,5174.19,5330.39,5185.16,5330.39Z" transform="translate(-2898.97 -162.21)"/><path class="cls-1" d="M3616.1,5425.71c89.3-1.74,178,1.39,266.69,4.68,23.6.87,53.08,4.07,48.88,12.57-4.59,9.29-20.58,21.68-61.25,17.79-96.69-9.23-194.72-5.14-292.61-4.53-49.61.31-99.44-2.43-149-4.42-17.91-.72-45.79,2.72-44.74-10,.93-11.15,18.83-16.14,47.62-16.13Q3523.89,5425.73,3616.1,5425.71Z" transform="translate(-2898.97 -162.21)"/><path class="cls-1" d="M3885,5466c-4.65,0-9.71-.24-15.21-.76-76.25-7.29-154.87-6.22-230.91-5.18-20.33.27-40.66.55-61,.67-40.07.29-80.76-1.5-120.13-3.2l-29.19-1.22c-3.57-.15-7.54-.11-11.57-.09-13.65.09-27.8.18-34.67-5.63a10.31,10.31,0,0,1-3.81-9c1.12-13.48,19-20.31,53.09-20.31H3616c92.4-1.79,185.16,1.65,267,4.69,45.42,1.68,51.05,8.63,52.91,10.92a6.92,6.92,0,0,1,.92,7.76C3934.22,5450,3923.07,5466,3885,5466Zm-164.29-15.63c50.15,0,100.69,1.23,150.42,6,42.46,4,53.12-10.45,55.36-15-1-1.11-10.95-5.24-43.91-6.46-81.69-3-174.29-6.49-266.31-4.68H3431.58c-15.33,0-41,1.56-41.91,12a2.37,2.37,0,0,0,.78,2.28c3.51,3,16.75,2.85,26.42,2.82,4.27,0,8.46-.06,12.23.1l29.23,1.23c39.2,1.69,79.7,3.44,119.44,3.19,20.29-.13,40.59-.41,60.88-.68C3665.72,5450.7,3693.14,5450.33,3720.67,5450.33Z" transform="translate(-2898.97 -162.21)"/></g></g></svg>